<svg class="recharts-surface" width="1230" height="300" viewBox="0 0 1230 300" style="width: 100%; height: 100%; background-color: white;" xmlns="http://www.w3.org/2000/svg" xmlns:xlink="http://www.w3.org/1999/xlink"><title></title><desc></desc><defs><clipPath id="recharts16-clip"><rect x="185" y="20" height="230" width="1025"></rect></clipPath></defs><g class="recharts-layer recharts-cartesian-axis recharts-xAxis xAxis"><line name="IV Indicators" orientation="bottom" width="1025" height="30" x="185" y="250" class="recharts-cartesian-axis-line" stroke="black" fill="none" x1="185" y1="250" x2="1210" y2="250"></line><g class="recharts-cartesian-axis-ticks"><g class="recharts-layer recharts-cartesian-axis-tick"><line name="IV Indicators" orientation="bottom" width="1025" height="30" x="185" y="250" class="recharts-cartesian-axis-tick-line" stroke="black" fill="none" x1="308.49397590361446" y1="256" x2="308.49397590361446" y2="250"></line><text name="IV Indicators" orientation="bottom" width="1025" height="30" stroke="none" x="308.49397590361446" y="261" class="recharts-text recharts-cartesian-axis-tick-value" text-anchor="middle" fill="black"><tspan x="308.49397590361446" dy="0.71em">Post Only</tspan></text></g><g class="recharts-layer recharts-cartesian-axis-tick"><line name="IV Indicators" orientation="bottom" width="1025" height="30" x="185" y="250" class="recharts-cartesian-axis-tick-line" stroke="black" fill="none" x1="555.4819277108434" y1="256" x2="555.4819277108434" y2="250"></line><text name="IV Indicators" orientation="bottom" width="1025" height="30" stroke="none" x="555.4819277108434" y="261" class="recharts-text recharts-cartesian-axis-tick-value" text-anchor="middle" fill="black"><tspan x="555.4819277108434" dy="0.71em">Pre/Post</tspan></text></g><g class="recharts-layer recharts-cartesian-axis-tick"><line name="IV Indicators" orientation="bottom" width="1025" height="30" x="185" y="250" class="recharts-cartesian-axis-tick-line" stroke="black" fill="none" x1="802.4698795180723" y1="256" x2="802.4698795180723" y2="250"></line><text name="IV Indicators" orientation="bottom" width="1025" height="30" stroke="none" x="802.4698795180723" y="261" class="recharts-text recharts-cartesian-axis-tick-value" text-anchor="middle" fill="black"><tspan x="802.4698795180723" dy="0.71em">Intermittent</tspan></text></g><g class="recharts-layer recharts-cartesian-axis-tick"><line name="IV Indicators" orientation="bottom" width="1025" height="30" x="185" y="250" class="recharts-cartesian-axis-tick-line" stroke="black" fill="none" x1="1049.4578313253012" y1="256" x2="1049.4578313253012" y2="250"></line><text name="IV Indicators" orientation="bottom" width="1025" height="30" stroke="none" x="1049.4578313253012" y="261" class="recharts-text recharts-cartesian-axis-tick-value" text-anchor="middle" fill="black"><tspan x="1049.4578313253012" dy="0.71em">Single Case Data</tspan></text></g></g><text offset="5" x="697.5" y="290" class="recharts-text recharts-label" text-anchor="middle" fill="black"><tspan x="697.5" dy="0.355em">Rigor of Generalization Measurement</tspan></text></g><g class="recharts-layer recharts-cartesian-axis recharts-yAxis yAxis"><line name="Strength" orientation="left" width="60" height="230" x="125" y="20" class="recharts-cartesian-axis-line" stroke="black" fill="none" x1="185" y1="20" x2="185" y2="250"></line><g class="recharts-cartesian-axis-ticks"><g class="recharts-layer recharts-cartesian-axis-tick"><line name="Strength" orientation="left" width="60" height="230" x="125" y="20" class="recharts-cartesian-axis-tick-line" stroke="black" fill="none" x1="179" y1="227.7992277992278" x2="185" y2="227.7992277992278"></line><text name="Strength" orientation="left" width="60" height="230" stroke="none" x="174" y="227.7992277992278" class="recharts-text recharts-cartesian-axis-tick-value" text-anchor="end" fill="black"><tspan x="174" dy="0.355em">Counter-Therapeutic</tspan></text></g><g class="recharts-layer recharts-cartesian-axis-tick"><line name="Strength" orientation="left" width="60" height="230" x="125" y="20" class="recharts-cartesian-axis-tick-line" stroke="black" fill="none" x1="179" y1="183.39768339768338" x2="185" y2="183.39768339768338"></line><text name="Strength" orientation="left" width="60" height="230" stroke="none" x="174" y="183.39768339768338" class="recharts-text recharts-cartesian-axis-tick-value" text-anchor="end" fill="black"><tspan x="174" dy="0.355em">Null</tspan></text></g><g class="recharts-layer recharts-cartesian-axis-tick"><line name="Strength" orientation="left" width="60" height="230" x="125" y="20" class="recharts-cartesian-axis-tick-line" stroke="black" fill="none" x1="179" y1="138.996138996139" x2="185" y2="138.996138996139"></line><text name="Strength" orientation="left" width="60" height="230" stroke="none" x="174" y="138.996138996139" class="recharts-text recharts-cartesian-axis-tick-value" text-anchor="end" fill="black"><tspan x="174" dy="0.355em">Inconsistent</tspan></text></g><g class="recharts-layer recharts-cartesian-axis-tick"><line name="Strength" orientation="left" width="60" height="230" x="125" y="20" class="recharts-cartesian-axis-tick-line" stroke="black" fill="none" x1="179" y1="94.5945945945946" x2="185" y2="94.5945945945946"></line><text name="Strength" orientation="left" width="60" height="230" stroke="none" x="174" y="94.5945945945946" class="recharts-text recharts-cartesian-axis-tick-value" text-anchor="end" fill="black"><tspan x="174" dy="0.355em">Weak</tspan></text></g><g class="recharts-layer recharts-cartesian-axis-tick"><line name="Strength" orientation="left" width="60" height="230" x="125" y="20" class="recharts-cartesian-axis-tick-line" stroke="black" fill="none" x1="179" y1="50.19305019305018" x2="185" y2="50.19305019305018"></line><text name="Strength" orientation="left" width="60" height="230" stroke="none" x="174" y="50.19305019305018" class="recharts-text recharts-cartesian-axis-tick-value" text-anchor="end" fill="black"><tspan x="174" dy="0.355em">Strong</tspan></text></g></g><text offset="5" transform="rotate(-90, 30, 135)" x="30" y="135" class="recharts-text recharts-label" text-anchor="middle" fill="black"><tspan x="30" dy="0.355em">Generalization</tspan></text></g><g class="recharts-layer recharts-scatter"><g class="recharts-layer"><g class="recharts-layer"><g class="recharts-layer recharts-scatter-symbol" role="img"><path name="Published Literature" fill="#59ACF2" stroke="black" opacity="0.8" width="11.283791670955125" height="11.283791670955125" x="559.7195499476549" y="53.43146323788151" id="ec45b6ce-0356-4a59-b5d2-dc2b669a52b8" z="100" cx="565.3614457831325" cy="59.07335907335907" class="recharts-symbols" transform="translate(565.3614457831325, 59.07335907335907)" d="M5.642,0A5.642,5.642,0,1,1,-5.642,0A5.642,5.642,0,1,1,5.642,0"></path></g><g class="recharts-layer recharts-scatter-symbol" role="img"><path name="Published Literature" fill="#59ACF2" stroke="black" opacity="0.8" width="11.283791670955125" height="11.283791670955125" x="1019.1171403091006" y="47.65926246568075" id="2b2a5977-af16-4dc9-a382-08c0a976ed77" z="100" cx="1024.7590361445782" cy="53.30115830115831" class="recharts-symbols" transform="translate(1024.7590361445782, 53.30115830115831)" d="M5.642,0A5.642,5.642,0,1,1,-5.642,0A5.642,5.642,0,1,1,5.642,0"></path></g><g class="recharts-layer recharts-scatter-symbol" role="img"><path name="Published Literature" fill="#59ACF2" stroke="black" opacity="0.8" width="11.283791670955125" height="11.283791670955125" x="1080.8641282609078" y="43.663123469541766" id="3a116d24-8ef7-4f41-b1e0-60c983ab393a" z="100" cx="1086.5060240963853" cy="49.30501930501933" class="recharts-symbols" transform="translate(1086.5060240963853, 49.30501930501933)" d="M5.642,0A5.642,5.642,0,1,1,-5.642,0A5.642,5.642,0,1,1,5.642,0"></path></g><g class="recharts-layer recharts-scatter-symbol" role="img"><path name="Published Literature" fill="#59ACF2" stroke="black" opacity="0.8" width="11.283791670955125" height="11.283791670955125" x="1070.9846101886187" y="36.558876365294644" id="ea64fa26-8cd7-4510-afb3-173bc77b8fe8" z="100" cx="1076.6265060240962" cy="42.20077220077221" class="recharts-symbols" transform="translate(1076.6265060240962, 42.20077220077221)" d="M5.642,0A5.642,5.642,0,1,1,-5.642,0A5.642,5.642,0,1,1,5.642,0"></path></g></g></g></g></svg>