<svg class="recharts-surface" width="1150" height="500" viewBox="0 0 1150 500" style="width: 100%; height: 100%;" xmlns="http://www.w3.org/2000/svg" xmlns:xlink="http://www.w3.org/1999/xlink"><title></title><desc></desc><defs><clipPath id="recharts2-clip"><rect x="185" y="20" height="430" width="945"></rect></clipPath></defs><g class="recharts-layer recharts-cartesian-axis recharts-xAxis xAxis"><line name="IV Indicators" orientation="bottom" width="945" height="30" x="185" y="450" class="recharts-cartesian-axis-line" stroke="black" fill="none" x1="185" y1="450" x2="1130" y2="450"></line><g class="recharts-cartesian-axis-ticks"><g class="recharts-layer recharts-cartesian-axis-tick"><line name="IV Indicators" orientation="bottom" width="945" height="30" x="185" y="450" class="recharts-cartesian-axis-tick-line" stroke="black" fill="none" x1="214.53125" y1="456" x2="214.53125" y2="450"></line><text name="IV Indicators" orientation="bottom" width="945" height="30" stroke="none" x="214.53125" y="461" class="recharts-text recharts-cartesian-axis-tick-value" text-anchor="middle" fill="black"><tspan x="214.53125" dy="0.71em">0</tspan></text></g><g class="recharts-layer recharts-cartesian-axis-tick"><line name="IV Indicators" orientation="bottom" width="945" height="30" x="185" y="450" class="recharts-cartesian-axis-tick-line" stroke="black" fill="none" x1="273.59375" y1="456" x2="273.59375" y2="450"></line><text name="IV Indicators" orientation="bottom" width="945" height="30" stroke="none" x="273.59375" y="461" class="recharts-text recharts-cartesian-axis-tick-value" text-anchor="middle" fill="black"><tspan x="273.59375" dy="0.71em">1</tspan></text></g><g class="recharts-layer recharts-cartesian-axis-tick"><line name="IV Indicators" orientation="bottom" width="945" height="30" x="185" y="450" class="recharts-cartesian-axis-tick-line" stroke="black" fill="none" x1="332.65625" y1="456" x2="332.65625" y2="450"></line><text name="IV Indicators" orientation="bottom" width="945" height="30" stroke="none" x="332.65625" y="461" class="recharts-text recharts-cartesian-axis-tick-value" text-anchor="middle" fill="black"><tspan x="332.65625" dy="0.71em">2</tspan></text></g><g class="recharts-layer recharts-cartesian-axis-tick"><line name="IV Indicators" orientation="bottom" width="945" height="30" x="185" y="450" class="recharts-cartesian-axis-tick-line" stroke="black" fill="none" x1="391.71875" y1="456" x2="391.71875" y2="450"></line><text name="IV Indicators" orientation="bottom" width="945" height="30" stroke="none" x="391.71875" y="461" class="recharts-text recharts-cartesian-axis-tick-value" text-anchor="middle" fill="black"><tspan x="391.71875" dy="0.71em">3</tspan></text></g><g class="recharts-layer recharts-cartesian-axis-tick"><line name="IV Indicators" orientation="bottom" width="945" height="30" x="185" y="450" class="recharts-cartesian-axis-tick-line" stroke="black" fill="none" x1="450.78125" y1="456" x2="450.78125" y2="450"></line><text name="IV Indicators" orientation="bottom" width="945" height="30" stroke="none" x="450.78125" y="461" class="recharts-text recharts-cartesian-axis-tick-value" text-anchor="middle" fill="black"><tspan x="450.78125" dy="0.71em">4</tspan></text></g><g class="recharts-layer recharts-cartesian-axis-tick"><line name="IV Indicators" orientation="bottom" width="945" height="30" x="185" y="450" class="recharts-cartesian-axis-tick-line" stroke="black" fill="none" x1="509.84375" y1="456" x2="509.84375" y2="450"></line><text name="IV Indicators" orientation="bottom" width="945" height="30" stroke="none" x="509.84375" y="461" class="recharts-text recharts-cartesian-axis-tick-value" text-anchor="middle" fill="black"><tspan x="509.84375" dy="0.71em">5</tspan></text></g><g class="recharts-layer recharts-cartesian-axis-tick"><line name="IV Indicators" orientation="bottom" width="945" height="30" x="185" y="450" class="recharts-cartesian-axis-tick-line" stroke="black" fill="none" x1="568.90625" y1="456" x2="568.90625" y2="450"></line><text name="IV Indicators" orientation="bottom" width="945" height="30" stroke="none" x="568.90625" y="461" class="recharts-text recharts-cartesian-axis-tick-value" text-anchor="middle" fill="black"><tspan x="568.90625" dy="0.71em">6</tspan></text></g><g class="recharts-layer recharts-cartesian-axis-tick"><line name="IV Indicators" orientation="bottom" width="945" height="30" x="185" y="450" class="recharts-cartesian-axis-tick-line" stroke="black" fill="none" x1="627.96875" y1="456" x2="627.96875" y2="450"></line><text name="IV Indicators" orientation="bottom" width="945" height="30" stroke="none" x="627.96875" y="461" class="recharts-text recharts-cartesian-axis-tick-value" text-anchor="middle" fill="black"><tspan x="627.96875" dy="0.71em">7</tspan></text></g><g class="recharts-layer recharts-cartesian-axis-tick"><line name="IV Indicators" orientation="bottom" width="945" height="30" x="185" y="450" class="recharts-cartesian-axis-tick-line" stroke="black" fill="none" x1="687.03125" y1="456" x2="687.03125" y2="450"></line><text name="IV Indicators" orientation="bottom" width="945" height="30" stroke="none" x="687.03125" y="461" class="recharts-text recharts-cartesian-axis-tick-value" text-anchor="middle" fill="black"><tspan x="687.03125" dy="0.71em">8</tspan></text></g><g class="recharts-layer recharts-cartesian-axis-tick"><line name="IV Indicators" orientation="bottom" width="945" height="30" x="185" y="450" class="recharts-cartesian-axis-tick-line" stroke="black" fill="none" x1="746.09375" y1="456" x2="746.09375" y2="450"></line><text name="IV Indicators" orientation="bottom" width="945" height="30" stroke="none" x="746.09375" y="461" class="recharts-text recharts-cartesian-axis-tick-value" text-anchor="middle" fill="black"><tspan x="746.09375" dy="0.71em">9</tspan></text></g><g class="recharts-layer recharts-cartesian-axis-tick"><line name="IV Indicators" orientation="bottom" width="945" height="30" x="185" y="450" class="recharts-cartesian-axis-tick-line" stroke="black" fill="none" x1="805.15625" y1="456" x2="805.15625" y2="450"></line><text name="IV Indicators" orientation="bottom" width="945" height="30" stroke="none" x="805.15625" y="461" class="recharts-text recharts-cartesian-axis-tick-value" text-anchor="middle" fill="black"><tspan x="805.15625" dy="0.71em">10</tspan></text></g><g class="recharts-layer recharts-cartesian-axis-tick"><line name="IV Indicators" orientation="bottom" width="945" height="30" x="185" y="450" class="recharts-cartesian-axis-tick-line" stroke="black" fill="none" x1="864.21875" y1="456" x2="864.21875" y2="450"></line><text name="IV Indicators" orientation="bottom" width="945" height="30" stroke="none" x="864.21875" y="461" class="recharts-text recharts-cartesian-axis-tick-value" text-anchor="middle" fill="black"><tspan x="864.21875" dy="0.71em">11</tspan></text></g><g class="recharts-layer recharts-cartesian-axis-tick"><line name="IV Indicators" orientation="bottom" width="945" height="30" x="185" y="450" class="recharts-cartesian-axis-tick-line" stroke="black" fill="none" x1="923.28125" y1="456" x2="923.28125" y2="450"></line><text name="IV Indicators" orientation="bottom" width="945" height="30" stroke="none" x="923.28125" y="461" class="recharts-text recharts-cartesian-axis-tick-value" text-anchor="middle" fill="black"><tspan x="923.28125" dy="0.71em">12</tspan></text></g><g class="recharts-layer recharts-cartesian-axis-tick"><line name="IV Indicators" orientation="bottom" width="945" height="30" x="185" y="450" class="recharts-cartesian-axis-tick-line" stroke="black" fill="none" x1="982.34375" y1="456" x2="982.34375" y2="450"></line><text name="IV Indicators" orientation="bottom" width="945" height="30" stroke="none" x="982.34375" y="461" class="recharts-text recharts-cartesian-axis-tick-value" text-anchor="middle" fill="black"><tspan x="982.34375" dy="0.71em">13</tspan></text></g><g class="recharts-layer recharts-cartesian-axis-tick"><line name="IV Indicators" orientation="bottom" width="945" height="30" x="185" y="450" class="recharts-cartesian-axis-tick-line" stroke="black" fill="none" x1="1041.40625" y1="456" x2="1041.40625" y2="450"></line><text name="IV Indicators" orientation="bottom" width="945" height="30" stroke="none" x="1041.40625" y="461" class="recharts-text recharts-cartesian-axis-tick-value" text-anchor="middle" fill="black"><tspan x="1041.40625" dy="0.71em">14</tspan></text></g><g class="recharts-layer recharts-cartesian-axis-tick"><line name="IV Indicators" orientation="bottom" width="945" height="30" x="185" y="450" class="recharts-cartesian-axis-tick-line" stroke="black" fill="none" x1="1100.46875" y1="456" x2="1100.46875" y2="450"></line><text name="IV Indicators" orientation="bottom" width="945" height="30" stroke="none" x="1100.46875" y="461" class="recharts-text recharts-cartesian-axis-tick-value" text-anchor="middle" fill="black"><tspan x="1100.46875" dy="0.71em">15</tspan></text></g></g><text offset="5" x="657.5" y="490" class="recharts-text recharts-label" text-anchor="middle" fill="black"><tspan x="657.5" dy="0.355em">Indicators of Internal Validity</tspan></text></g><g class="recharts-layer recharts-cartesian-axis recharts-yAxis yAxis"><line name="Strength" orientation="left" width="60" height="430" x="125" y="20" class="recharts-cartesian-axis-line" stroke="black" fill="none" x1="185" y1="20" x2="185" y2="450"></line><g class="recharts-cartesian-axis-ticks"><g class="recharts-layer recharts-cartesian-axis-tick"><line name="Strength" orientation="left" width="60" height="430" x="125" y="20" class="recharts-cartesian-axis-tick-line" stroke="black" fill="none" x1="179" y1="407.2564612326044" x2="185" y2="407.2564612326044"></line><text name="Strength" orientation="left" width="60" height="430" stroke="none" x="174" y="407.2564612326044" class="recharts-text recharts-cartesian-axis-tick-value" text-anchor="end" fill="black"><tspan x="174" dy="0.355em">Counter-Therapeutic</tspan></text></g><g class="recharts-layer recharts-cartesian-axis-tick"><line name="Strength" orientation="left" width="60" height="430" x="125" y="20" class="recharts-cartesian-axis-tick-line" stroke="black" fill="none" x1="179" y1="321.76938369781305" x2="185" y2="321.76938369781305"></line><text name="Strength" orientation="left" width="60" height="430" stroke="none" x="174" y="321.76938369781305" class="recharts-text recharts-cartesian-axis-tick-value" text-anchor="end" fill="black"><tspan x="174" dy="0.355em">Null</tspan></text></g><g class="recharts-layer recharts-cartesian-axis-tick"><line name="Strength" orientation="left" width="60" height="430" x="125" y="20" class="recharts-cartesian-axis-tick-line" stroke="black" fill="none" x1="179" y1="236.2823061630219" x2="185" y2="236.2823061630219"></line><text name="Strength" orientation="left" width="60" height="430" stroke="none" x="174" y="236.2823061630219" class="recharts-text recharts-cartesian-axis-tick-value" text-anchor="end" fill="black"><tspan x="174" dy="0.355em">Inconsistent</tspan></text></g><g class="recharts-layer recharts-cartesian-axis-tick"><line name="Strength" orientation="left" width="60" height="430" x="125" y="20" class="recharts-cartesian-axis-tick-line" stroke="black" fill="none" x1="179" y1="150.79522862823063" x2="185" y2="150.79522862823063"></line><text name="Strength" orientation="left" width="60" height="430" stroke="none" x="174" y="150.79522862823063" class="recharts-text recharts-cartesian-axis-tick-value" text-anchor="end" fill="black"><tspan x="174" dy="0.355em">Weak</tspan></text></g><g class="recharts-layer recharts-cartesian-axis-tick"><line name="Strength" orientation="left" width="60" height="430" x="125" y="20" class="recharts-cartesian-axis-tick-line" stroke="black" fill="none" x1="179" y1="65.30815109343936" x2="185" y2="65.30815109343936"></line><text name="Strength" orientation="left" width="60" height="430" stroke="none" x="174" y="65.30815109343936" class="recharts-text recharts-cartesian-axis-tick-value" text-anchor="end" fill="black"><tspan x="174" dy="0.355em">Strong</tspan></text></g></g><text offset="5" transform="rotate(-90, 30, 235)" x="30" y="235" class="recharts-text recharts-label" text-anchor="middle" fill="black"><tspan x="30" dy="0.355em">Functional Relation</tspan></text></g><g class="recharts-layer recharts-scatter"><g class="recharts-layer"><g class="recharts-layer"><g class="recharts-layer recharts-scatter-symbol" role="img"><path name="Published Literature" fill="#59ACF2" stroke="black" opacity="0.8" width="11.283791670955125" height="11.283791670955125" x="1027.4956041645225" y="57.101642931918086" id="9d73fbb6-f519-40f9-9c2c-4c19fd728d93" z="100" cx="1033.1375" cy="62.74353876739565" class="recharts-symbols" transform="translate(1033.1375, 62.74353876739565)" d="M5.642,0A5.642,5.642,0,1,1,-5.642,0A5.642,5.642,0,1,1,5.642,0"></path></g></g></g></g></svg>