<svg class="recharts-surface" width="1137" height="300" viewBox="0 0 1137 300" style="width: 100%; height: 100%; background-color:white;" xmlns="http://www.w3.org/2000/svg" xmlns:xlink="http://www.w3.org/1999/xlink"><title></title><desc></desc><defs><clipPath id="recharts26-clip"><rect x="185" y="20" height="230" width="932"></rect></clipPath></defs><g class="recharts-layer recharts-cartesian-axis recharts-xAxis xAxis"><line name="IV Indicators" orientation="bottom" width="932" height="30" x="185" y="250" class="recharts-cartesian-axis-line" stroke="black" fill="none" x1="185" y1="250" x2="1117" y2="250"></line><g class="recharts-cartesian-axis-ticks"><g class="recharts-layer recharts-cartesian-axis-tick"><line name="IV Indicators" orientation="bottom" width="932" height="30" x="185" y="250" class="recharts-cartesian-axis-tick-line" stroke="black" fill="none" x1="284.85714285714283" y1="256" x2="284.85714285714283" y2="250"></line><text name="IV Indicators" orientation="bottom" width="932" height="30" stroke="none" x="284.85714285714283" y="261" class="recharts-text recharts-cartesian-axis-tick-value" text-anchor="middle" fill="black"><tspan x="284.85714285714283" dy="0.71em">Immediate/Unclear</tspan></text></g><g class="recharts-layer recharts-cartesian-axis-tick"><line name="IV Indicators" orientation="bottom" width="932" height="30" x="185" y="250" class="recharts-cartesian-axis-tick-line" stroke="black" fill="none" x1="469.7777777777778" y1="256" x2="469.7777777777778" y2="250"></line><text name="IV Indicators" orientation="bottom" width="932" height="30" stroke="none" x="469.7777777777778" y="261" class="recharts-text recharts-cartesian-axis-tick-value" text-anchor="middle" fill="black"><tspan x="469.7777777777778" dy="0.71em">&gt;= 1 Week</tspan></text></g><g class="recharts-layer recharts-cartesian-axis-tick"><line name="IV Indicators" orientation="bottom" width="932" height="30" x="185" y="250" class="recharts-cartesian-axis-tick-line" stroke="black" fill="none" x1="654.6984126984127" y1="256" x2="654.6984126984127" y2="250"></line><text name="IV Indicators" orientation="bottom" width="932" height="30" stroke="none" x="654.6984126984127" y="261" class="recharts-text recharts-cartesian-axis-tick-value" text-anchor="middle" fill="black"><tspan x="654.6984126984127" dy="0.71em">&gt;= 2 Weeks</tspan></text></g><g class="recharts-layer recharts-cartesian-axis-tick"><line name="IV Indicators" orientation="bottom" width="932" height="30" x="185" y="250" class="recharts-cartesian-axis-tick-line" stroke="black" fill="none" x1="839.6190476190476" y1="256" x2="839.6190476190476" y2="250"></line><text name="IV Indicators" orientation="bottom" width="932" height="30" stroke="none" x="839.6190476190476" y="261" class="recharts-text recharts-cartesian-axis-tick-value" text-anchor="middle" fill="black"><tspan x="839.6190476190476" dy="0.71em">&gt;= 1 Month</tspan></text></g><g class="recharts-layer recharts-cartesian-axis-tick"><line name="IV Indicators" orientation="bottom" width="932" height="30" x="185" y="250" class="recharts-cartesian-axis-tick-line" stroke="black" fill="none" x1="1024.5396825396826" y1="256" x2="1024.5396825396826" y2="250"></line><text name="IV Indicators" orientation="bottom" width="932" height="30" stroke="none" x="1024.5396825396826" y="261" class="recharts-text recharts-cartesian-axis-tick-value" text-anchor="middle" fill="black"><tspan x="1024.5396825396826" dy="0.71em">Immediate/Unclear</tspan></text></g></g><text offset="5" x="651" y="290" class="recharts-text recharts-label" text-anchor="middle" fill="black"><tspan x="651" dy="0.355em">Period of Maintenance</tspan></text></g><g class="recharts-layer recharts-cartesian-axis recharts-yAxis yAxis"><line name="Strength" color="black" orientation="left" width="60" height="230" x="125" y="20" class="recharts-cartesian-axis-line" stroke="black" fill="none" x1="185" y1="20" x2="185" y2="250"></line><g class="recharts-cartesian-axis-ticks"><g class="recharts-layer recharts-cartesian-axis-tick"><line name="Strength" color="black" orientation="left" width="60" height="230" x="125" y="20" class="recharts-cartesian-axis-tick-line" stroke="black" fill="none" x1="179" y1="227" x2="185" y2="227"></line><text name="Strength" color="black" orientation="left" width="60" height="230" stroke="none" x="174" y="227" class="recharts-text recharts-cartesian-axis-tick-value" text-anchor="end" fill="black"><tspan x="174" dy="0.355em">Counter-Therapeutic</tspan></text></g><g class="recharts-layer recharts-cartesian-axis-tick"><line name="Strength" color="black" orientation="left" width="60" height="230" x="125" y="20" class="recharts-cartesian-axis-tick-line" stroke="black" fill="none" x1="179" y1="181" x2="185" y2="181"></line><text name="Strength" color="black" orientation="left" width="60" height="230" stroke="none" x="174" y="181" class="recharts-text recharts-cartesian-axis-tick-value" text-anchor="end" fill="black"><tspan x="174" dy="0.355em">Null</tspan></text></g><g class="recharts-layer recharts-cartesian-axis-tick"><line name="Strength" color="black" orientation="left" width="60" height="230" x="125" y="20" class="recharts-cartesian-axis-tick-line" stroke="black" fill="none" x1="179" y1="135" x2="185" y2="135"></line><text name="Strength" color="black" orientation="left" width="60" height="230" stroke="none" x="174" y="135" class="recharts-text recharts-cartesian-axis-tick-value" text-anchor="end" fill="black"><tspan x="174" dy="0.355em">Inconsistent</tspan></text></g><g class="recharts-layer recharts-cartesian-axis-tick"><line name="Strength" color="black" orientation="left" width="60" height="230" x="125" y="20" class="recharts-cartesian-axis-tick-line" stroke="black" fill="none" x1="179" y1="89.00000000000001" x2="185" y2="89.00000000000001"></line><text name="Strength" color="black" orientation="left" width="60" height="230" stroke="none" x="174" y="89.00000000000001" class="recharts-text recharts-cartesian-axis-tick-value" text-anchor="end" fill="black"><tspan x="174" dy="0.355em">Weak</tspan></text></g><g class="recharts-layer recharts-cartesian-axis-tick"><line name="Strength" color="black" orientation="left" width="60" height="230" x="125" y="20" class="recharts-cartesian-axis-tick-line" stroke="black" fill="none" x1="179" y1="42.99999999999999" x2="185" y2="42.99999999999999"></line><text name="Strength" color="black" orientation="left" width="60" height="230" stroke="none" x="174" y="42.99999999999999" class="recharts-text recharts-cartesian-axis-tick-value" text-anchor="end" fill="black"><tspan x="174" dy="0.355em">Strong</tspan></text></g></g><text offset="5" transform="rotate(-90, 30, 135)" x="30" y="135" class="recharts-text recharts-label" text-anchor="middle" fill="black"><tspan x="30" dy="0.355em">Maintenance</tspan></text></g><g class="recharts-layer recharts-scatter"><g class="recharts-layer"><g class="recharts-layer"><g class="recharts-layer recharts-scatter-symbol" role="img"><path name="Published Literature" fill="#59ACF2" stroke="black" opacity="0.8" width="22.56758334191025" height="22.56758334191025" x="271.7241448369814" y="35.856208329044875" id="79691207-fc42-4c2f-aa46-40ce299def07" z="400" cx="283.0079365079365" cy="47.14" class="recharts-symbols" transform="translate(283.0079365079365, 47.14)" d="M11.284,0A11.284,11.284,0,1,1,-11.284,0A11.284,11.284,0,1,1,11.284,0"></path></g><g class="recharts-layer recharts-scatter-symbol" role="img"><path name="Published Literature" fill="#59ACF2" stroke="black" opacity="0.8" width="22.56758334191025" height="22.56758334191025" x="650.811446424283" y="119.57620832904489" id="d9691207-fc42-4c2f-aa46-40ce299def07" z="400" cx="662.0952380952381" cy="130.86" class="recharts-symbols" transform="translate(662.0952380952381, 130.86)" d="M11.284,0A11.284,11.284,0,1,1,-11.284,0A11.284,11.284,0,1,1,11.284,0"></path></g><g class="recharts-layer recharts-scatter-symbol" role="img"><path name="Published Literature" fill="#59ACF2" stroke="black" opacity="0.8" width="22.56758334191025" height="22.56758334191025" x="843.1289067417433" y="124.17620832904488" id="e9691207-fc42-4c2f-aa46-40ce299def07" z="400" cx="854.4126984126984" cy="135.46" class="recharts-symbols" transform="translate(854.4126984126984, 135.46)" d="M11.284,0A11.284,11.284,0,1,1,-11.284,0A11.284,11.284,0,1,1,11.284,0"></path></g><g class="recharts-layer recharts-scatter-symbol" role="img"><path name="Published Literature" fill="#59ACF2" stroke="black" opacity="0.8" width="22.56758334191025" height="22.56758334191025" x="844.9781130909497" y="165.57620832904485" id="f9691207-fc42-4c2f-aa46-40ce299def07" z="400" cx="856.2619047619048" cy="176.85999999999999" class="recharts-symbols" transform="translate(856.2619047619048, 176.85999999999999)" d="M11.284,0A11.284,11.284,0,1,1,-11.284,0A11.284,11.284,0,1,1,11.284,0"></path></g></g></g></g><g class="recharts-layer recharts-scatter"><g class="recharts-layer"><g class="recharts-layer"><g class="recharts-layer recharts-scatter-symbol" role="img"><path name="Gray Literature" fill="#556270" stroke="black" opacity="0.8" width="22.56758334191025" height="22.56758334191025" x="266.17652578936236" y="75.87620832904489" id="c9691207-fc42-4c2f-aa46-40ce299def07" z="400" cx="277.46031746031747" cy="87.16000000000001" class="recharts-symbols" transform="translate(277.46031746031747, 87.16000000000001)" d="M11.284,0A11.284,11.284,0,1,1,-11.284,0A11.284,11.284,0,1,1,11.284,0"></path></g></g></g></g></svg>