<svg class="recharts-surface" width="1137" height="300" viewBox="0 0 1137 300" style="width: 100%; height: 100%; background-color:white;" xmlns="http://www.w3.org/2000/svg" xmlns:xlink="http://www.w3.org/1999/xlink"><title></title><desc></desc><defs><clipPath id="recharts20-clip"><rect x="185" y="20" height="230" width="932"></rect></clipPath></defs><g class="recharts-layer recharts-cartesian-axis recharts-xAxis xAxis"><line name="IV Indicators" orientation="bottom" width="932" height="30" x="185" y="250" class="recharts-cartesian-axis-line" stroke="black" fill="none" x1="185" y1="250" x2="1117" y2="250"></line><g class="recharts-cartesian-axis-ticks"><g class="recharts-layer recharts-cartesian-axis-tick"><line name="IV Indicators" orientation="bottom" width="932" height="30" x="185" y="250" class="recharts-cartesian-axis-tick-line" stroke="black" fill="none" x1="214.125" y1="256" x2="214.125" y2="250"></line><text name="IV Indicators" orientation="bottom" width="932" height="30" stroke="none" x="214.125" y="261" class="recharts-text recharts-cartesian-axis-tick-value" text-anchor="middle" fill="black"><tspan x="214.125" dy="0.71em">0</tspan></text></g><g class="recharts-layer recharts-cartesian-axis-tick"><line name="IV Indicators" orientation="bottom" width="932" height="30" x="185" y="250" class="recharts-cartesian-axis-tick-line" stroke="black" fill="none" x1="272.375" y1="256" x2="272.375" y2="250"></line><text name="IV Indicators" orientation="bottom" width="932" height="30" stroke="none" x="272.375" y="261" class="recharts-text recharts-cartesian-axis-tick-value" text-anchor="middle" fill="black"><tspan x="272.375" dy="0.71em">1</tspan></text></g><g class="recharts-layer recharts-cartesian-axis-tick"><line name="IV Indicators" orientation="bottom" width="932" height="30" x="185" y="250" class="recharts-cartesian-axis-tick-line" stroke="black" fill="none" x1="330.625" y1="256" x2="330.625" y2="250"></line><text name="IV Indicators" orientation="bottom" width="932" height="30" stroke="none" x="330.625" y="261" class="recharts-text recharts-cartesian-axis-tick-value" text-anchor="middle" fill="black"><tspan x="330.625" dy="0.71em">2</tspan></text></g><g class="recharts-layer recharts-cartesian-axis-tick"><line name="IV Indicators" orientation="bottom" width="932" height="30" x="185" y="250" class="recharts-cartesian-axis-tick-line" stroke="black" fill="none" x1="388.875" y1="256" x2="388.875" y2="250"></line><text name="IV Indicators" orientation="bottom" width="932" height="30" stroke="none" x="388.875" y="261" class="recharts-text recharts-cartesian-axis-tick-value" text-anchor="middle" fill="black"><tspan x="388.875" dy="0.71em">3</tspan></text></g><g class="recharts-layer recharts-cartesian-axis-tick"><line name="IV Indicators" orientation="bottom" width="932" height="30" x="185" y="250" class="recharts-cartesian-axis-tick-line" stroke="black" fill="none" x1="447.125" y1="256" x2="447.125" y2="250"></line><text name="IV Indicators" orientation="bottom" width="932" height="30" stroke="none" x="447.125" y="261" class="recharts-text recharts-cartesian-axis-tick-value" text-anchor="middle" fill="black"><tspan x="447.125" dy="0.71em">4</tspan></text></g><g class="recharts-layer recharts-cartesian-axis-tick"><line name="IV Indicators" orientation="bottom" width="932" height="30" x="185" y="250" class="recharts-cartesian-axis-tick-line" stroke="black" fill="none" x1="505.375" y1="256" x2="505.375" y2="250"></line><text name="IV Indicators" orientation="bottom" width="932" height="30" stroke="none" x="505.375" y="261" class="recharts-text recharts-cartesian-axis-tick-value" text-anchor="middle" fill="black"><tspan x="505.375" dy="0.71em">5</tspan></text></g><g class="recharts-layer recharts-cartesian-axis-tick"><line name="IV Indicators" orientation="bottom" width="932" height="30" x="185" y="250" class="recharts-cartesian-axis-tick-line" stroke="black" fill="none" x1="563.625" y1="256" x2="563.625" y2="250"></line><text name="IV Indicators" orientation="bottom" width="932" height="30" stroke="none" x="563.625" y="261" class="recharts-text recharts-cartesian-axis-tick-value" text-anchor="middle" fill="black"><tspan x="563.625" dy="0.71em">6</tspan></text></g><g class="recharts-layer recharts-cartesian-axis-tick"><line name="IV Indicators" orientation="bottom" width="932" height="30" x="185" y="250" class="recharts-cartesian-axis-tick-line" stroke="black" fill="none" x1="621.875" y1="256" x2="621.875" y2="250"></line><text name="IV Indicators" orientation="bottom" width="932" height="30" stroke="none" x="621.875" y="261" class="recharts-text recharts-cartesian-axis-tick-value" text-anchor="middle" fill="black"><tspan x="621.875" dy="0.71em">7</tspan></text></g><g class="recharts-layer recharts-cartesian-axis-tick"><line name="IV Indicators" orientation="bottom" width="932" height="30" x="185" y="250" class="recharts-cartesian-axis-tick-line" stroke="black" fill="none" x1="680.125" y1="256" x2="680.125" y2="250"></line><text name="IV Indicators" orientation="bottom" width="932" height="30" stroke="none" x="680.125" y="261" class="recharts-text recharts-cartesian-axis-tick-value" text-anchor="middle" fill="black"><tspan x="680.125" dy="0.71em">8</tspan></text></g><g class="recharts-layer recharts-cartesian-axis-tick"><line name="IV Indicators" orientation="bottom" width="932" height="30" x="185" y="250" class="recharts-cartesian-axis-tick-line" stroke="black" fill="none" x1="738.375" y1="256" x2="738.375" y2="250"></line><text name="IV Indicators" orientation="bottom" width="932" height="30" stroke="none" x="738.375" y="261" class="recharts-text recharts-cartesian-axis-tick-value" text-anchor="middle" fill="black"><tspan x="738.375" dy="0.71em">9</tspan></text></g><g class="recharts-layer recharts-cartesian-axis-tick"><line name="IV Indicators" orientation="bottom" width="932" height="30" x="185" y="250" class="recharts-cartesian-axis-tick-line" stroke="black" fill="none" x1="796.625" y1="256" x2="796.625" y2="250"></line><text name="IV Indicators" orientation="bottom" width="932" height="30" stroke="none" x="796.625" y="261" class="recharts-text recharts-cartesian-axis-tick-value" text-anchor="middle" fill="black"><tspan x="796.625" dy="0.71em">10</tspan></text></g><g class="recharts-layer recharts-cartesian-axis-tick"><line name="IV Indicators" orientation="bottom" width="932" height="30" x="185" y="250" class="recharts-cartesian-axis-tick-line" stroke="black" fill="none" x1="854.875" y1="256" x2="854.875" y2="250"></line><text name="IV Indicators" orientation="bottom" width="932" height="30" stroke="none" x="854.875" y="261" class="recharts-text recharts-cartesian-axis-tick-value" text-anchor="middle" fill="black"><tspan x="854.875" dy="0.71em">11</tspan></text></g><g class="recharts-layer recharts-cartesian-axis-tick"><line name="IV Indicators" orientation="bottom" width="932" height="30" x="185" y="250" class="recharts-cartesian-axis-tick-line" stroke="black" fill="none" x1="913.125" y1="256" x2="913.125" y2="250"></line><text name="IV Indicators" orientation="bottom" width="932" height="30" stroke="none" x="913.125" y="261" class="recharts-text recharts-cartesian-axis-tick-value" text-anchor="middle" fill="black"><tspan x="913.125" dy="0.71em">12</tspan></text></g><g class="recharts-layer recharts-cartesian-axis-tick"><line name="IV Indicators" orientation="bottom" width="932" height="30" x="185" y="250" class="recharts-cartesian-axis-tick-line" stroke="black" fill="none" x1="971.375" y1="256" x2="971.375" y2="250"></line><text name="IV Indicators" orientation="bottom" width="932" height="30" stroke="none" x="971.375" y="261" class="recharts-text recharts-cartesian-axis-tick-value" text-anchor="middle" fill="black"><tspan x="971.375" dy="0.71em">13</tspan></text></g><g class="recharts-layer recharts-cartesian-axis-tick"><line name="IV Indicators" orientation="bottom" width="932" height="30" x="185" y="250" class="recharts-cartesian-axis-tick-line" stroke="black" fill="none" x1="1029.625" y1="256" x2="1029.625" y2="250"></line><text name="IV Indicators" orientation="bottom" width="932" height="30" stroke="none" x="1029.625" y="261" class="recharts-text recharts-cartesian-axis-tick-value" text-anchor="middle" fill="black"><tspan x="1029.625" dy="0.71em">14</tspan></text></g><g class="recharts-layer recharts-cartesian-axis-tick"><line name="IV Indicators" orientation="bottom" width="932" height="30" x="185" y="250" class="recharts-cartesian-axis-tick-line" stroke="black" fill="none" x1="1087.875" y1="256" x2="1087.875" y2="250"></line><text name="IV Indicators" orientation="bottom" width="932" height="30" stroke="none" x="1087.875" y="261" class="recharts-text recharts-cartesian-axis-tick-value" text-anchor="middle" fill="black"><tspan x="1087.875" dy="0.71em">15</tspan></text></g></g><text offset="5" x="651" y="290" class="recharts-text recharts-label" text-anchor="middle" fill="black"><tspan x="651" dy="0.355em">Indicators of Internal Validity</tspan></text></g><g class="recharts-layer recharts-cartesian-axis recharts-yAxis yAxis"><line name="Strength" orientation="left" width="60" height="230" x="125" y="20" class="recharts-cartesian-axis-line" stroke="black" fill="none" x1="185" y1="20" x2="185" y2="250"></line><g class="recharts-cartesian-axis-ticks"><g class="recharts-layer recharts-cartesian-axis-tick"><line name="Strength" orientation="left" width="60" height="230" x="125" y="20" class="recharts-cartesian-axis-tick-line" stroke="black" fill="none" x1="179" y1="227.31755424063118" x2="185" y2="227.31755424063118"></line><text name="Strength" orientation="left" width="60" height="230" stroke="none" x="174" y="227.31755424063118" class="recharts-text recharts-cartesian-axis-tick-value" text-anchor="end" fill="black"><tspan x="174" dy="0.355em">Counter-Therapeutic</tspan></text></g><g class="recharts-layer recharts-cartesian-axis-tick"><line name="Strength" orientation="left" width="60" height="230" x="125" y="20" class="recharts-cartesian-axis-tick-line" stroke="black" fill="none" x1="179" y1="181.9526627218935" x2="185" y2="181.9526627218935"></line><text name="Strength" orientation="left" width="60" height="230" stroke="none" x="174" y="181.9526627218935" class="recharts-text recharts-cartesian-axis-tick-value" text-anchor="end" fill="black"><tspan x="174" dy="0.355em">Null</tspan></text></g><g class="recharts-layer recharts-cartesian-axis-tick"><line name="Strength" orientation="left" width="60" height="230" x="125" y="20" class="recharts-cartesian-axis-tick-line" stroke="black" fill="none" x1="179" y1="136.58777120315582" x2="185" y2="136.58777120315582"></line><text name="Strength" orientation="left" width="60" height="230" stroke="none" x="174" y="136.58777120315582" class="recharts-text recharts-cartesian-axis-tick-value" text-anchor="end" fill="black"><tspan x="174" dy="0.355em">Inconsistent</tspan></text></g><g class="recharts-layer recharts-cartesian-axis-tick"><line name="Strength" orientation="left" width="60" height="230" x="125" y="20" class="recharts-cartesian-axis-tick-line" stroke="black" fill="none" x1="179" y1="91.22287968441816" x2="185" y2="91.22287968441816"></line><text name="Strength" orientation="left" width="60" height="230" stroke="none" x="174" y="91.22287968441816" class="recharts-text recharts-cartesian-axis-tick-value" text-anchor="end" fill="black"><tspan x="174" dy="0.355em">Weak</tspan></text></g><g class="recharts-layer recharts-cartesian-axis-tick"><line name="Strength" orientation="left" width="60" height="230" x="125" y="20" class="recharts-cartesian-axis-tick-line" stroke="black" fill="none" x1="179" y1="45.85798816568048" x2="185" y2="45.85798816568048"></line><text name="Strength" orientation="left" width="60" height="230" stroke="none" x="174" y="45.85798816568048" class="recharts-text recharts-cartesian-axis-tick-value" text-anchor="end" fill="black"><tspan x="174" dy="0.355em">Strong</tspan></text></g></g><text offset="5" transform="rotate(-90, 30, 135)" x="30" y="135" class="recharts-text recharts-label" text-anchor="middle" fill="black"><tspan x="30" dy="0.355em">Functional Relation</tspan></text></g><g class="recharts-layer recharts-scatter"><g class="recharts-layer"><g class="recharts-layer"><g class="recharts-layer recharts-scatter-symbol" role="img"><path name="Published Literature" fill="#59ACF2" stroke="black" opacity="0.8" width="22.56758334191025" height="22.56758334191025" x="1022.418708329045" y="36.84244107066225" id="79691207-fc42-4c2f-aa46-40ce299def07" z="400" cx="1033.7025" cy="48.12623274161737" class="recharts-symbols" transform="translate(1033.7025, 48.12623274161737)" d="M11.284,0A11.284,11.284,0,1,1,-11.284,0A11.284,11.284,0,1,1,11.284,0"></path></g><g class="recharts-layer recharts-scatter-symbol" role="img"><path name="Published Literature" fill="#59ACF2" stroke="black" opacity="0.8" width="22.56758334191025" height="22.56758334191025" x="959.5087083290449" y="34.574196494725356" id="d9691207-fc42-4c2f-aa46-40ce299def07" z="400" cx="970.7925" cy="45.85798816568048" class="recharts-symbols" transform="translate(970.7925, 45.85798816568048)" d="M11.284,0A11.284,11.284,0,1,1,-11.284,0A11.284,11.284,0,1,1,11.284,0"></path></g><g class="recharts-layer recharts-scatter-symbol" role="img"><path name="Published Literature" fill="#59ACF2" stroke="black" opacity="0.8" width="22.56758334191025" height="22.56758334191025" x="1022.418708329045" y="31.3986540884137" id="e9691207-fc42-4c2f-aa46-40ce299def07" z="400" cx="1033.7025" cy="42.682445759368825" class="recharts-symbols" transform="translate(1033.7025, 42.682445759368825)" d="M11.284,0A11.284,11.284,0,1,1,-11.284,0A11.284,11.284,0,1,1,11.284,0"></path></g><g class="recharts-layer recharts-scatter-symbol" role="img"><path name="Published Literature" fill="#59ACF2" stroke="black" opacity="0.8" width="22.56758334191025" height="22.56758334191025" x="1015.428708329045" y="31.85230300360113" id="f9691207-fc42-4c2f-aa46-40ce299def07" z="400" cx="1026.7125" cy="43.136094674556254" class="recharts-symbols" transform="translate(1026.7125, 43.136094674556254)" d="M11.284,0A11.284,11.284,0,1,1,-11.284,0A11.284,11.284,0,1,1,11.284,0"></path></g></g></g></g><g class="recharts-layer recharts-scatter"><g class="recharts-layer"><g class="recharts-layer"><g class="recharts-layer recharts-scatter-symbol" role="img"><path name="Gray Literature" fill="#556270" stroke="black" opacity="0.8" width="22.56758334191025" height="22.56758334191025" x="1018.3412083290449" y="78.1244923527135" id="c9691207-fc42-4c2f-aa46-40ce299def07" z="400" cx="1029.625" cy="89.40828402366863" class="recharts-symbols" transform="translate(1029.625, 89.40828402366863)" d="M11.284,0A11.284,11.284,0,1,1,-11.284,0A11.284,11.284,0,1,1,11.284,0"></path></g></g></g></g></svg>