<svg class="recharts-surface" width="1137" height="300" viewBox="0 0 1137 300" style="width: 100%; height: 100%; background-color:white;" xmlns="http://www.w3.org/2000/svg" xmlns:xlink="http://www.w3.org/1999/xlink"><title></title><desc></desc><defs><clipPath id="recharts32-clip"><rect x="185" y="20" height="230" width="932"></rect></clipPath></defs><g class="recharts-layer recharts-cartesian-axis recharts-xAxis xAxis"><line name="IV Indicators" orientation="bottom" width="932" height="30" x="185" y="250" class="recharts-cartesian-axis-line" stroke="black" fill="none" x1="185" y1="250" x2="1117" y2="250"></line><g class="recharts-cartesian-axis-ticks"><g class="recharts-layer recharts-cartesian-axis-tick"><line name="IV Indicators" orientation="bottom" width="932" height="30" x="185" y="250" class="recharts-cartesian-axis-tick-line" stroke="black" fill="none" x1="301.5" y1="256" x2="301.5" y2="250"></line><text name="IV Indicators" orientation="bottom" width="932" height="30" stroke="none" x="301.5" y="261" class="recharts-text recharts-cartesian-axis-tick-value" text-anchor="middle" fill="black"><tspan x="301.5" dy="0.71em">Post Only</tspan></text></g><g class="recharts-layer recharts-cartesian-axis-tick"><line name="IV Indicators" orientation="bottom" width="932" height="30" x="185" y="250" class="recharts-cartesian-axis-tick-line" stroke="black" fill="none" x1="534.5" y1="256" x2="534.5" y2="250"></line><text name="IV Indicators" orientation="bottom" width="932" height="30" stroke="none" x="534.5" y="261" class="recharts-text recharts-cartesian-axis-tick-value" text-anchor="middle" fill="black"><tspan x="534.5" dy="0.71em">Pre/Post</tspan></text></g><g class="recharts-layer recharts-cartesian-axis-tick"><line name="IV Indicators" orientation="bottom" width="932" height="30" x="185" y="250" class="recharts-cartesian-axis-tick-line" stroke="black" fill="none" x1="767.5" y1="256" x2="767.5" y2="250"></line><text name="IV Indicators" orientation="bottom" width="932" height="30" stroke="none" x="767.5" y="261" class="recharts-text recharts-cartesian-axis-tick-value" text-anchor="middle" fill="black"><tspan x="767.5" dy="0.71em">Intermittent</tspan></text></g><g class="recharts-layer recharts-cartesian-axis-tick"><line name="IV Indicators" orientation="bottom" width="932" height="30" x="185" y="250" class="recharts-cartesian-axis-tick-line" stroke="black" fill="none" x1="1000.5" y1="256" x2="1000.5" y2="250"></line><text name="IV Indicators" orientation="bottom" width="932" height="30" stroke="none" x="1000.5" y="261" class="recharts-text recharts-cartesian-axis-tick-value" text-anchor="middle" fill="black"><tspan x="1000.5" dy="0.71em">Single Case Data</tspan></text></g></g><text offset="5" x="651" y="290" class="recharts-text recharts-label" text-anchor="middle" fill="black"><tspan x="651" dy="0.355em">Rigor of Generalization Measurement</tspan></text></g><g class="recharts-layer recharts-cartesian-axis recharts-yAxis yAxis"><line name="Strength" orientation="left" width="60" height="230" x="125" y="20" class="recharts-cartesian-axis-line" stroke="black" fill="none" x1="185" y1="20" x2="185" y2="250"></line><g class="recharts-cartesian-axis-ticks"><g class="recharts-layer recharts-cartesian-axis-tick"><line name="Strength" orientation="left" width="60" height="230" x="125" y="20" class="recharts-cartesian-axis-tick-line" stroke="black" fill="none" x1="179" y1="227" x2="185" y2="227"></line><text name="Strength" orientation="left" width="60" height="230" stroke="none" x="174" y="227" class="recharts-text recharts-cartesian-axis-tick-value" text-anchor="end" fill="black"><tspan x="174" dy="0.355em">Counter-Therapeutic</tspan></text></g><g class="recharts-layer recharts-cartesian-axis-tick"><line name="Strength" orientation="left" width="60" height="230" x="125" y="20" class="recharts-cartesian-axis-tick-line" stroke="black" fill="none" x1="179" y1="181" x2="185" y2="181"></line><text name="Strength" orientation="left" width="60" height="230" stroke="none" x="174" y="181" class="recharts-text recharts-cartesian-axis-tick-value" text-anchor="end" fill="black"><tspan x="174" dy="0.355em">Null</tspan></text></g><g class="recharts-layer recharts-cartesian-axis-tick"><line name="Strength" orientation="left" width="60" height="230" x="125" y="20" class="recharts-cartesian-axis-tick-line" stroke="black" fill="none" x1="179" y1="135" x2="185" y2="135"></line><text name="Strength" orientation="left" width="60" height="230" stroke="none" x="174" y="135" class="recharts-text recharts-cartesian-axis-tick-value" text-anchor="end" fill="black"><tspan x="174" dy="0.355em">Inconsistent</tspan></text></g><g class="recharts-layer recharts-cartesian-axis-tick"><line name="Strength" orientation="left" width="60" height="230" x="125" y="20" class="recharts-cartesian-axis-tick-line" stroke="black" fill="none" x1="179" y1="89.00000000000001" x2="185" y2="89.00000000000001"></line><text name="Strength" orientation="left" width="60" height="230" stroke="none" x="174" y="89.00000000000001" class="recharts-text recharts-cartesian-axis-tick-value" text-anchor="end" fill="black"><tspan x="174" dy="0.355em">Weak</tspan></text></g><g class="recharts-layer recharts-cartesian-axis-tick"><line name="Strength" orientation="left" width="60" height="230" x="125" y="20" class="recharts-cartesian-axis-tick-line" stroke="black" fill="none" x1="179" y1="42.99999999999999" x2="185" y2="42.99999999999999"></line><text name="Strength" orientation="left" width="60" height="230" stroke="none" x="174" y="42.99999999999999" class="recharts-text recharts-cartesian-axis-tick-value" text-anchor="end" fill="black"><tspan x="174" dy="0.355em">Strong</tspan></text></g></g><text offset="5" transform="rotate(-90, 30, 135)" x="30" y="135" class="recharts-text recharts-label" text-anchor="middle" fill="black"><tspan x="30" dy="0.355em">Generalization</tspan></text></g><g class="recharts-layer recharts-scatter"><g class="recharts-layer"><g class="recharts-layer"><g class="recharts-layer recharts-scatter-symbol" role="img"><path name="Published Literature" fill="#59ACF2" stroke="black" opacity="0.8" width="22.56758334191025" height="22.56758334191025" x="290.2162083290449" y="31.716208329044868" id="79691207-fc42-4c2f-aa46-40ce299def07" z="400" cx="301.5" cy="42.99999999999999" class="recharts-symbols" transform="translate(301.5, 42.99999999999999)" d="M11.284,0A11.284,11.284,0,1,1,-11.284,0A11.284,11.284,0,1,1,11.284,0"></path></g><g class="recharts-layer recharts-scatter-symbol" role="img"><path name="Published Literature" fill="#59ACF2" stroke="black" opacity="0.8" width="22.56758334191025" height="22.56758334191025" x="294.87620832904486" y="124.17620832904488" id="d9691207-fc42-4c2f-aa46-40ce299def07" z="400" cx="306.15999999999997" cy="135.46" class="recharts-symbols" transform="translate(306.15999999999997, 135.46)" d="M11.284,0A11.284,11.284,0,1,1,-11.284,0A11.284,11.284,0,1,1,11.284,0"></path></g><g class="recharts-layer recharts-scatter-symbol" role="img"><path name="Published Literature" fill="#59ACF2" stroke="black" opacity="0.8" width="22.56758334191025" height="22.56758334191025" x="982.226208329045" y="119.11620832904488" id="e9691207-fc42-4c2f-aa46-40ce299def07" z="400" cx="993.5100000000001" cy="130.4" class="recharts-symbols" transform="translate(993.5100000000001, 130.4)" d="M11.284,0A11.284,11.284,0,1,1,-11.284,0A11.284,11.284,0,1,1,11.284,0"></path></g><g class="recharts-layer recharts-scatter-symbol" role="img"><path name="Published Literature" fill="#59ACF2" stroke="black" opacity="0.8" width="22.56758334191025" height="22.56758334191025" x="972.906208329045" y="172.0162083290449" id="f9691207-fc42-4c2f-aa46-40ce299def07" z="400" cx="984.19" cy="183.3" class="recharts-symbols" transform="translate(984.19, 183.3)" d="M11.284,0A11.284,11.284,0,1,1,-11.284,0A11.284,11.284,0,1,1,11.284,0"></path></g></g></g></g><g class="recharts-layer recharts-scatter"><g class="recharts-layer"><g class="recharts-layer"><g class="recharts-layer recharts-scatter-symbol" role="img"><path name="Gray Literature" fill="#556270" stroke="black" opacity="0.8" width="22.56758334191025" height="22.56758334191025" x="313.51620832904484" y="75.87620832904489" id="c9691207-fc42-4c2f-aa46-40ce299def07" z="400" cx="324.79999999999995" cy="87.16000000000001" class="recharts-symbols" transform="translate(324.79999999999995, 87.16000000000001)" d="M11.284,0A11.284,11.284,0,1,1,-11.284,0A11.284,11.284,0,1,1,11.284,0"></path></g></g></g></g></svg>