<svg class="recharts-surface" width="1230" height="300" viewBox="0 0 1230 300" style="width: 100%; height: 100%;" xmlns="http://www.w3.org/2000/svg" xmlns:xlink="http://www.w3.org/1999/xlink"><title></title><desc></desc><defs><clipPath id="recharts1-clip"><rect x="185" y="20" height="230" width="1025"></rect></clipPath></defs><g class="recharts-layer recharts-cartesian-axis recharts-xAxis xAxis"><line name="IV Indicators" orientation="bottom" width="1025" height="30" x="185" y="250" class="recharts-cartesian-axis-line" stroke="black" fill="none" x1="185" y1="250" x2="1210" y2="250"></line><g class="recharts-cartesian-axis-ticks"><g class="recharts-layer recharts-cartesian-axis-tick"><line name="IV Indicators" orientation="bottom" width="1025" height="30" x="185" y="250" class="recharts-cartesian-axis-tick-line" stroke="black" fill="none" x1="217.01124297314178" y1="256" x2="217.01124297314178" y2="250"></line><text name="IV Indicators" orientation="bottom" width="1025" height="30" stroke="none" x="217.01124297314178" y="261" class="recharts-text recharts-cartesian-axis-tick-value" text-anchor="middle" fill="black"><tspan x="217.01124297314178" dy="0.71em">0</tspan></text></g><g class="recharts-layer recharts-cartesian-axis-tick"><line name="IV Indicators" orientation="bottom" width="1025" height="30" x="185" y="250" class="recharts-cartesian-axis-tick-line" stroke="black" fill="none" x1="281.03372891942536" y1="256" x2="281.03372891942536" y2="250"></line><text name="IV Indicators" orientation="bottom" width="1025" height="30" stroke="none" x="281.03372891942536" y="261" class="recharts-text recharts-cartesian-axis-tick-value" text-anchor="middle" fill="black"><tspan x="281.03372891942536" dy="0.71em">1</tspan></text></g><g class="recharts-layer recharts-cartesian-axis-tick"><line name="IV Indicators" orientation="bottom" width="1025" height="30" x="185" y="250" class="recharts-cartesian-axis-tick-line" stroke="black" fill="none" x1="345.05621486570897" y1="256" x2="345.05621486570897" y2="250"></line><text name="IV Indicators" orientation="bottom" width="1025" height="30" stroke="none" x="345.05621486570897" y="261" class="recharts-text recharts-cartesian-axis-tick-value" text-anchor="middle" fill="black"><tspan x="345.05621486570897" dy="0.71em">2</tspan></text></g><g class="recharts-layer recharts-cartesian-axis-tick"><line name="IV Indicators" orientation="bottom" width="1025" height="30" x="185" y="250" class="recharts-cartesian-axis-tick-line" stroke="black" fill="none" x1="409.0787008119926" y1="256" x2="409.0787008119926" y2="250"></line><text name="IV Indicators" orientation="bottom" width="1025" height="30" stroke="none" x="409.0787008119926" y="261" class="recharts-text recharts-cartesian-axis-tick-value" text-anchor="middle" fill="black"><tspan x="409.0787008119926" dy="0.71em">3</tspan></text></g><g class="recharts-layer recharts-cartesian-axis-tick"><line name="IV Indicators" orientation="bottom" width="1025" height="30" x="185" y="250" class="recharts-cartesian-axis-tick-line" stroke="black" fill="none" x1="473.10118675827607" y1="256" x2="473.10118675827607" y2="250"></line><text name="IV Indicators" orientation="bottom" width="1025" height="30" stroke="none" x="473.10118675827607" y="261" class="recharts-text recharts-cartesian-axis-tick-value" text-anchor="middle" fill="black"><tspan x="473.10118675827607" dy="0.71em">4</tspan></text></g><g class="recharts-layer recharts-cartesian-axis-tick"><line name="IV Indicators" orientation="bottom" width="1025" height="30" x="185" y="250" class="recharts-cartesian-axis-tick-line" stroke="black" fill="none" x1="537.1236727045597" y1="256" x2="537.1236727045597" y2="250"></line><text name="IV Indicators" orientation="bottom" width="1025" height="30" stroke="none" x="537.1236727045597" y="261" class="recharts-text recharts-cartesian-axis-tick-value" text-anchor="middle" fill="black"><tspan x="537.1236727045597" dy="0.71em">5</tspan></text></g><g class="recharts-layer recharts-cartesian-axis-tick"><line name="IV Indicators" orientation="bottom" width="1025" height="30" x="185" y="250" class="recharts-cartesian-axis-tick-line" stroke="black" fill="none" x1="601.1461586508433" y1="256" x2="601.1461586508433" y2="250"></line><text name="IV Indicators" orientation="bottom" width="1025" height="30" stroke="none" x="601.1461586508433" y="261" class="recharts-text recharts-cartesian-axis-tick-value" text-anchor="middle" fill="black"><tspan x="601.1461586508433" dy="0.71em">6</tspan></text></g><g class="recharts-layer recharts-cartesian-axis-tick"><line name="IV Indicators" orientation="bottom" width="1025" height="30" x="185" y="250" class="recharts-cartesian-axis-tick-line" stroke="black" fill="none" x1="665.1686445971268" y1="256" x2="665.1686445971268" y2="250"></line><text name="IV Indicators" orientation="bottom" width="1025" height="30" stroke="none" x="665.1686445971268" y="261" class="recharts-text recharts-cartesian-axis-tick-value" text-anchor="middle" fill="black"><tspan x="665.1686445971268" dy="0.71em">7</tspan></text></g><g class="recharts-layer recharts-cartesian-axis-tick"><line name="IV Indicators" orientation="bottom" width="1025" height="30" x="185" y="250" class="recharts-cartesian-axis-tick-line" stroke="black" fill="none" x1="729.1911305434105" y1="256" x2="729.1911305434105" y2="250"></line><text name="IV Indicators" orientation="bottom" width="1025" height="30" stroke="none" x="729.1911305434105" y="261" class="recharts-text recharts-cartesian-axis-tick-value" text-anchor="middle" fill="black"><tspan x="729.1911305434105" dy="0.71em">8</tspan></text></g><g class="recharts-layer recharts-cartesian-axis-tick"><line name="IV Indicators" orientation="bottom" width="1025" height="30" x="185" y="250" class="recharts-cartesian-axis-tick-line" stroke="black" fill="none" x1="793.2136164896941" y1="256" x2="793.2136164896941" y2="250"></line><text name="IV Indicators" orientation="bottom" width="1025" height="30" stroke="none" x="793.2136164896941" y="261" class="recharts-text recharts-cartesian-axis-tick-value" text-anchor="middle" fill="black"><tspan x="793.2136164896941" dy="0.71em">9</tspan></text></g><g class="recharts-layer recharts-cartesian-axis-tick"><line name="IV Indicators" orientation="bottom" width="1025" height="30" x="185" y="250" class="recharts-cartesian-axis-tick-line" stroke="black" fill="none" x1="857.2361024359776" y1="256" x2="857.2361024359776" y2="250"></line><text name="IV Indicators" orientation="bottom" width="1025" height="30" stroke="none" x="857.2361024359776" y="261" class="recharts-text recharts-cartesian-axis-tick-value" text-anchor="middle" fill="black"><tspan x="857.2361024359776" dy="0.71em">10</tspan></text></g><g class="recharts-layer recharts-cartesian-axis-tick"><line name="IV Indicators" orientation="bottom" width="1025" height="30" x="185" y="250" class="recharts-cartesian-axis-tick-line" stroke="black" fill="none" x1="921.2585883822611" y1="256" x2="921.2585883822611" y2="250"></line><text name="IV Indicators" orientation="bottom" width="1025" height="30" stroke="none" x="921.2585883822611" y="261" class="recharts-text recharts-cartesian-axis-tick-value" text-anchor="middle" fill="black"><tspan x="921.2585883822611" dy="0.71em">11</tspan></text></g><g class="recharts-layer recharts-cartesian-axis-tick"><line name="IV Indicators" orientation="bottom" width="1025" height="30" x="185" y="250" class="recharts-cartesian-axis-tick-line" stroke="black" fill="none" x1="985.2810743285447" y1="256" x2="985.2810743285447" y2="250"></line><text name="IV Indicators" orientation="bottom" width="1025" height="30" stroke="none" x="985.2810743285447" y="261" class="recharts-text recharts-cartesian-axis-tick-value" text-anchor="middle" fill="black"><tspan x="985.2810743285447" dy="0.71em">12</tspan></text></g><g class="recharts-layer recharts-cartesian-axis-tick"><line name="IV Indicators" orientation="bottom" width="1025" height="30" x="185" y="250" class="recharts-cartesian-axis-tick-line" stroke="black" fill="none" x1="1049.3035602748284" y1="256" x2="1049.3035602748284" y2="250"></line><text name="IV Indicators" orientation="bottom" width="1025" height="30" stroke="none" x="1049.3035602748284" y="261" class="recharts-text recharts-cartesian-axis-tick-value" text-anchor="middle" fill="black"><tspan x="1049.3035602748284" dy="0.71em">13</tspan></text></g><g class="recharts-layer recharts-cartesian-axis-tick"><line name="IV Indicators" orientation="bottom" width="1025" height="30" x="185" y="250" class="recharts-cartesian-axis-tick-line" stroke="black" fill="none" x1="1113.326046221112" y1="256" x2="1113.326046221112" y2="250"></line><text name="IV Indicators" orientation="bottom" width="1025" height="30" stroke="none" x="1113.326046221112" y="261" class="recharts-text recharts-cartesian-axis-tick-value" text-anchor="middle" fill="black"><tspan x="1113.326046221112" dy="0.71em">14</tspan></text></g><g class="recharts-layer recharts-cartesian-axis-tick"><line name="IV Indicators" orientation="bottom" width="1025" height="30" x="185" y="250" class="recharts-cartesian-axis-tick-line" stroke="black" fill="none" x1="1177.3485321673957" y1="256" x2="1177.3485321673957" y2="250"></line><text name="IV Indicators" orientation="bottom" width="1025" height="30" stroke="none" x="1177.3485321673957" y="261" class="recharts-text recharts-cartesian-axis-tick-value" text-anchor="middle" fill="black"><tspan x="1177.3485321673957" dy="0.71em">15</tspan></text></g></g><text offset="5" x="697.5" y="290" class="recharts-text recharts-label" text-anchor="middle" fill="black"><tspan x="697.5" dy="0.355em">Indicators of Internal Validity</tspan></text></g><g class="recharts-layer recharts-cartesian-axis recharts-yAxis yAxis"><line name="Strength" orientation="left" width="60" height="230" x="125" y="20" class="recharts-cartesian-axis-line" stroke="black" fill="none" x1="185" y1="20" x2="185" y2="250"></line><g class="recharts-cartesian-axis-ticks"><g class="recharts-layer recharts-cartesian-axis-tick"><line name="Strength" orientation="left" width="60" height="230" x="125" y="20" class="recharts-cartesian-axis-tick-line" stroke="black" fill="none" x1="179" y1="227.8846153846154" x2="185" y2="227.8846153846154"></line><text name="Strength" orientation="left" width="60" height="230" stroke="none" x="174" y="227.8846153846154" class="recharts-text recharts-cartesian-axis-tick-value" text-anchor="end" fill="black"><tspan x="174" dy="0.355em">Counter-Therapeutic</tspan></text></g><g class="recharts-layer recharts-cartesian-axis-tick"><line name="Strength" orientation="left" width="60" height="230" x="125" y="20" class="recharts-cartesian-axis-tick-line" stroke="black" fill="none" x1="179" y1="183.65384615384616" x2="185" y2="183.65384615384616"></line><text name="Strength" orientation="left" width="60" height="230" stroke="none" x="174" y="183.65384615384616" class="recharts-text recharts-cartesian-axis-tick-value" text-anchor="end" fill="black"><tspan x="174" dy="0.355em">Null</tspan></text></g><g class="recharts-layer recharts-cartesian-axis-tick"><line name="Strength" orientation="left" width="60" height="230" x="125" y="20" class="recharts-cartesian-axis-tick-line" stroke="black" fill="none" x1="179" y1="139.42307692307693" x2="185" y2="139.42307692307693"></line><text name="Strength" orientation="left" width="60" height="230" stroke="none" x="174" y="139.42307692307693" class="recharts-text recharts-cartesian-axis-tick-value" text-anchor="end" fill="black"><tspan x="174" dy="0.355em">Inconsistent</tspan></text></g><g class="recharts-layer recharts-cartesian-axis-tick"><line name="Strength" orientation="left" width="60" height="230" x="125" y="20" class="recharts-cartesian-axis-tick-line" stroke="black" fill="none" x1="179" y1="95.19230769230771" x2="185" y2="95.19230769230771"></line><text name="Strength" orientation="left" width="60" height="230" stroke="none" x="174" y="95.19230769230771" class="recharts-text recharts-cartesian-axis-tick-value" text-anchor="end" fill="black"><tspan x="174" dy="0.355em">Weak</tspan></text></g><g class="recharts-layer recharts-cartesian-axis-tick"><line name="Strength" orientation="left" width="60" height="230" x="125" y="20" class="recharts-cartesian-axis-tick-line" stroke="black" fill="none" x1="179" y1="50.96153846153848" x2="185" y2="50.96153846153848"></line><text name="Strength" orientation="left" width="60" height="230" stroke="none" x="174" y="50.96153846153848" class="recharts-text recharts-cartesian-axis-tick-value" text-anchor="end" fill="black"><tspan x="174" dy="0.355em">Strong</tspan></text></g></g><text offset="5" transform="rotate(-90, 30, 135)" x="30" y="135" class="recharts-text recharts-label" text-anchor="middle" fill="black"><tspan x="30" dy="0.355em">Functional Relation</tspan></text></g><g class="recharts-layer recharts-scatter"><g class="recharts-layer"><g class="recharts-layer"><g class="recharts-layer recharts-scatter-symbol" role="img"><path name="Published Literature" fill="#59ACF2" stroke="black" opacity="0.8" width="11.283791670955125" height="11.283791670955125" x="1172.3468611913809" y="93.08887339529167" id="796a7273-7586-473d-8dce-a9b295c19014" z="100" cx="1177.9887570268584" cy="98.73076923076923" class="recharts-symbols" transform="translate(1177.9887570268584, 98.73076923076923)" d="M5.642,0A5.642,5.642,0,1,1,-5.642,0A5.642,5.642,0,1,1,5.642,0"></path></g><g class="recharts-layer recharts-scatter-symbol" role="img"><path name="Published Literature" fill="#59ACF2" stroke="black" opacity="0.8" width="11.283791670955125" height="11.283791670955125" x="1110.2450498234857" y="85.12733493375322" id="736189e4-c89e-4fa6-83d8-be5936ce8059" z="100" cx="1115.8869456589632" cy="90.76923076923077" class="recharts-symbols" transform="translate(1115.8869456589632, 90.76923076923077)" d="M5.642,0A5.642,5.642,0,1,1,-5.642,0A5.642,5.642,0,1,1,5.642,0"></path></g><g class="recharts-layer recharts-scatter-symbol" role="img"><path name="Published Literature" fill="#59ACF2" stroke="black" opacity="0.8" width="11.283791670955125" height="11.283791670955125" x="973.2369298984388" y="80.70425801067628" id="7aeb4e57-d2f4-4f82-9f6c-0efe45a87afc" z="100" cx="978.8788257339164" cy="86.34615384615384" class="recharts-symbols" transform="translate(978.8788257339164, 86.34615384615384)" d="M5.642,0A5.642,5.642,0,1,1,-5.642,0A5.642,5.642,0,1,1,5.642,0"></path></g><g class="recharts-layer recharts-scatter-symbol" role="img"><path name="Published Literature" fill="#59ACF2" stroke="black" opacity="0.8" width="11.283791670955125" height="11.283791670955125" x="977.0782790552158" y="91.3196426260609" id="c2acfc45-2893-4e64-af7c-5ce0ea4d275e" z="100" cx="982.7201748906934" cy="96.96153846153847" class="recharts-symbols" transform="translate(982.7201748906934, 96.96153846153847)" d="M5.642,0A5.642,5.642,0,1,1,-5.642,0A5.642,5.642,0,1,1,5.642,0"></path></g><g class="recharts-layer recharts-scatter-symbol" role="img"><path name="Published Literature" fill="#59ACF2" stroke="black" opacity="0.8" width="11.283791670955125" height="11.283791670955125" x="1033.4180666879454" y="185.53118108759938" id="70b38924-cea1-4f58-ac60-e1426ad7cac5" z="100" cx="1039.0599625234229" cy="191.17307692307693" class="recharts-symbols" transform="translate(1039.0599625234229, 191.17307692307693)" d="M5.642,0A5.642,5.642,0,1,1,-5.642,0A5.642,5.642,0,1,1,5.642,0"></path></g><g class="recharts-layer recharts-scatter-symbol" role="img"><path name="Published Literature" fill="#59ACF2" stroke="black" opacity="0.8" width="11.283791670955125" height="11.283791670955125" x="1050.0639130339791" y="185.97348877990706" id="aba34140-5b3a-4b10-9c78-fd434c4ef9f0" z="100" cx="1055.7058088694566" cy="191.6153846153846" class="recharts-symbols" transform="translate(1055.7058088694566, 191.6153846153846)" d="M5.642,0A5.642,5.642,0,1,1,-5.642,0A5.642,5.642,0,1,1,5.642,0"></path></g><g class="recharts-layer recharts-scatter-symbol" role="img"><path name="Published Literature" fill="#59ACF2" stroke="black" opacity="0.8" width="11.283791670955125" height="11.283791670955125" x="1050.704137893442" y="170.05041185683012" id="3b7cd479-e996-4848-8581-3e430ec7ea9c" z="100" cx="1056.3460337289196" cy="175.69230769230768" class="recharts-symbols" transform="translate(1056.3460337289196, 175.69230769230768)" d="M5.642,0A5.642,5.642,0,1,1,-5.642,0A5.642,5.642,0,1,1,5.642,0"></path></g><g class="recharts-layer recharts-scatter-symbol" role="img"><path name="Published Literature" fill="#59ACF2" stroke="black" opacity="0.8" width="11.283791670955125" height="11.283791670955125" x="1056.4661616286076" y="132.4542580106763" id="7d0a98bf-a20b-4b18-b379-dfb7564339bf" z="100" cx="1062.108057464085" cy="138.09615384615387" class="recharts-symbols" transform="translate(1062.108057464085, 138.09615384615387)" d="M5.642,0A5.642,5.642,0,1,1,-5.642,0A5.642,5.642,0,1,1,5.642,0"></path></g><g class="recharts-layer recharts-scatter-symbol" role="img"><path name="Published Literature" fill="#59ACF2" stroke="black" opacity="0.8" width="11.283791670955125" height="11.283791670955125" x="920.7384914224863" y="42.66579647221477" id="8417203b-b874-4124-ad08-07ca5365e94d" z="100" cx="926.3803872579639" cy="48.307692307692335" class="recharts-symbols" transform="translate(926.3803872579639, 48.307692307692335)" d="M5.642,0A5.642,5.642,0,1,1,-5.642,0A5.642,5.642,0,1,1,5.642,0"></path></g><g class="recharts-layer recharts-scatter-symbol" role="img"><path name="Published Literature" fill="#59ACF2" stroke="black" opacity="0.8" width="11.283791670955125" height="11.283791670955125" x="905.3730947953782" y="51.954258010676305" id="5c51ebaa-a39b-4aaa-8803-07834e542480" z="100" cx="911.0149906308558" cy="57.59615384615387" class="recharts-symbols" transform="translate(911.0149906308558, 57.59615384615387)" d="M5.642,0A5.642,5.642,0,1,1,-5.642,0A5.642,5.642,0,1,1,5.642,0"></path></g><g class="recharts-layer recharts-scatter-symbol" role="img"><path name="Published Literature" fill="#59ACF2" stroke="black" opacity="0.8" width="11.283791670955125" height="11.283791670955125" x="917.5373671251721" y="40.45425801067627" id="806f8389-bd11-47b7-bec1-0093d767c99a" z="100" cx="923.1792629606497" cy="46.09615384615383" class="recharts-symbols" transform="translate(923.1792629606497, 46.09615384615383)" d="M5.642,0A5.642,5.642,0,1,1,-5.642,0A5.642,5.642,0,1,1,5.642,0"></path></g><g class="recharts-layer recharts-scatter-symbol" role="img"><path name="Published Literature" fill="#59ACF2" stroke="black" opacity="0.8" width="11.283791670955125" height="11.283791670955125" x="928.4211897360402" y="52.83887339529166" id="3244f03b-6b15-43d4-829a-ef89331f30ed" z="100" cx="934.0630855715178" cy="58.48076923076922" class="recharts-symbols" transform="translate(934.0630855715178, 58.48076923076922)" d="M5.642,0A5.642,5.642,0,1,1,-5.642,0A5.642,5.642,0,1,1,5.642,0"></path></g><g class="recharts-layer recharts-scatter-symbol" role="img"><path name="Published Literature" fill="#59ACF2" stroke="black" opacity="0.8" width="11.283791670955125" height="11.283791670955125" x="917.5373671251721" y="43.108104164522466" id="1209b7b1-9922-4d29-a9d9-5cf5d7b5c98e" z="100" cx="923.1792629606497" cy="48.75000000000003" class="recharts-symbols" transform="translate(923.1792629606497, 48.75000000000003)" d="M5.642,0A5.642,5.642,0,1,1,-5.642,0A5.642,5.642,0,1,1,5.642,0"></path></g><g class="recharts-layer recharts-scatter-symbol" role="img"><path name="Published Literature" fill="#59ACF2" stroke="black" opacity="0.8" width="11.283791670955125" height="11.283791670955125" x="912.4155682494694" y="41.781181087599364" id="5f022b91-f40f-4a95-b54e-3a773919b937" z="100" cx="918.057464084947" cy="47.42307692307693" class="recharts-symbols" transform="translate(918.057464084947, 47.42307692307693)" d="M5.642,0A5.642,5.642,0,1,1,-5.642,0A5.642,5.642,0,1,1,5.642,0"></path></g><g class="recharts-layer recharts-scatter-symbol" role="img"><path name="Published Literature" fill="#59ACF2" stroke="black" opacity="0.8" width="11.283791670955125" height="11.283791670955125" x="982.2000779309185" y="50.627334933753204" id="26d0ec52-e01e-46a9-a73a-0fe167634fb6" z="100" cx="987.8419737663961" cy="56.26923076923077" class="recharts-symbols" transform="translate(987.8419737663961, 56.26923076923077)" d="M5.642,0A5.642,5.642,0,1,1,-5.642,0A5.642,5.642,0,1,1,5.642,0"></path></g><g class="recharts-layer recharts-scatter-symbol" role="img"><path name="Published Literature" fill="#59ACF2" stroke="black" opacity="0.8" width="11.283791670955125" height="11.283791670955125" x="989.2425513850097" y="125.37733493375322" id="9bcbf057-3eaa-4236-b779-503bbb0264e8" z="100" cx="994.8844472204873" cy="131.01923076923077" class="recharts-symbols" transform="translate(994.8844472204873, 131.01923076923077)" d="M5.642,0A5.642,5.642,0,1,1,-5.642,0A5.642,5.642,0,1,1,5.642,0"></path></g><g class="recharts-layer recharts-scatter-symbol" role="img"><path name="Published Literature" fill="#59ACF2" stroke="black" opacity="0.8" width="11.283791670955125" height="11.283791670955125" x="1119.8484227154283" y="175.80041185683012" id="33f25638-57f8-4cb3-8b48-9a6bdfba0939" z="100" cx="1125.4903185509058" cy="181.44230769230768" class="recharts-symbols" transform="translate(1125.4903185509058, 181.44230769230768)" d="M5.642,0A5.642,5.642,0,1,1,-5.642,0A5.642,5.642,0,1,1,5.642,0"></path></g><g class="recharts-layer recharts-scatter-symbol" role="img"><path name="Published Literature" fill="#59ACF2" stroke="black" opacity="0.8" width="11.283791670955125" height="11.283791670955125" x="1095.5198780558405" y="85.5696426260609" id="6e59039d-9b86-4b8a-8720-613cc48485e3" z="100" cx="1101.161773891318" cy="91.21153846153847" class="recharts-symbols" transform="translate(1101.161773891318, 91.21153846153847)" d="M5.642,0A5.642,5.642,0,1,1,-5.642,0A5.642,5.642,0,1,1,5.642,0"></path></g><g class="recharts-layer recharts-scatter-symbol" role="img"><path name="Published Literature" fill="#59ACF2" stroke="black" opacity="0.8" width="11.283791670955125" height="11.283791670955125" x="1107.0439255261715" y="140.41579647221477" id="5d46df1e-ff20-4dae-88d3-4727b76360b4" z="100" cx="1112.685821361649" cy="146.05769230769232" class="recharts-symbols" transform="translate(1112.685821361649, 146.05769230769232)" d="M5.642,0A5.642,5.642,0,1,1,-5.642,0A5.642,5.642,0,1,1,5.642,0"></path></g><g class="recharts-layer recharts-scatter-symbol" role="img"><path name="Published Literature" fill="#59ACF2" stroke="black" opacity="0.8" width="11.283791670955125" height="11.283791670955125" x="736.3537318971895" y="50.18502724144549" id="d0a23f6a-21fa-4da9-99a9-7e8010b4cfc9" z="100" cx="741.9956277326671" cy="55.82692307692305" class="recharts-symbols" transform="translate(741.9956277326671, 55.82692307692305)" d="M5.642,0A5.642,5.642,0,1,1,-5.642,0A5.642,5.642,0,1,1,5.642,0"></path></g><g class="recharts-layer recharts-scatter-symbol" role="img"><path name="Published Literature" fill="#59ACF2" stroke="black" opacity="0.8" width="11.283791670955125" height="11.283791670955125" x="724.1894595673957" y="52.83887339529166" id="7cee97ea-6125-4b73-99f7-c712af766583" z="100" cx="729.8313554028733" cy="58.48076923076922" class="recharts-symbols" transform="translate(729.8313554028733, 58.48076923076922)" d="M5.642,0A5.642,5.642,0,1,1,-5.642,0A5.642,5.642,0,1,1,5.642,0"></path></g><g class="recharts-layer recharts-scatter-symbol" role="img"><path name="Published Literature" fill="#59ACF2" stroke="black" opacity="0.8" width="11.283791670955125" height="11.283791670955125" x="918.177591984635" y="40.0119503183686" id="5a1b99c7-8d57-437a-ab6c-6606df25ba0b" z="100" cx="923.8194878201126" cy="45.65384615384616" class="recharts-symbols" transform="translate(923.8194878201126, 45.65384615384616)" d="M5.642,0A5.642,5.642,0,1,1,-5.642,0A5.642,5.642,0,1,1,5.642,0"></path></g><g class="recharts-layer recharts-scatter-symbol" role="img"><path name="Published Literature" fill="#59ACF2" stroke="black" opacity="0.8" width="11.283791670955125" height="11.283791670955125" x="914.336242827858" y="129.80041185683012" id="6e17a9f0-5c35-4291-a8f3-e37f9e0ab922" z="100" cx="919.9781386633356" cy="135.44230769230768" class="recharts-symbols" transform="translate(919.9781386633356, 135.44230769230768)" d="M5.642,0A5.642,5.642,0,1,1,-5.642,0A5.642,5.642,0,1,1,5.642,0"></path></g><g class="recharts-layer recharts-scatter-symbol" role="img"><path name="Published Literature" fill="#59ACF2" stroke="black" opacity="0.8" width="11.283791670955125" height="11.283791670955125" x="923.9396157198005" y="86.0119503183686" id="86723f64-5dfb-49c9-94fd-f525cf80ec2c" z="100" cx="929.5815115552781" cy="91.65384615384616" class="recharts-symbols" transform="translate(929.5815115552781, 91.65384615384616)" d="M5.642,0A5.642,5.642,0,1,1,-5.642,0A5.642,5.642,0,1,1,5.642,0"></path></g><g class="recharts-layer recharts-scatter-symbol" role="img"><path name="Published Literature" fill="#59ACF2" stroke="black" opacity="0.8" width="11.283791670955125" height="11.283791670955125" x="977.0782790552158" y="95.30041185683012" id="ee6c37c9-6103-4136-a963-502b13f66c01" z="100" cx="982.7201748906934" cy="100.9423076923077" class="recharts-symbols" transform="translate(982.7201748906934, 100.9423076923077)" d="M5.642,0A5.642,5.642,0,1,1,-5.642,0A5.642,5.642,0,1,1,5.642,0"></path></g><g class="recharts-layer recharts-scatter-symbol" role="img"><path name="Published Literature" fill="#59ACF2" stroke="black" opacity="0.8" width="11.283791670955125" height="11.283791670955125" x="983.4805276498442" y="82.47348877990703" id="7450ec71-948c-478b-abe1-c0e006a3dc44" z="100" cx="989.1224234853219" cy="88.1153846153846" class="recharts-symbols" transform="translate(989.1224234853219, 88.1153846153846)" d="M5.642,0A5.642,5.642,0,1,1,-5.642,0A5.642,5.642,0,1,1,5.642,0"></path></g><g class="recharts-layer recharts-scatter-symbol" role="img"><path name="Published Literature" fill="#59ACF2" stroke="black" opacity="0.8" width="11.283791670955125" height="11.283791670955125" x="968.7553558821988" y="93.53118108759935" id="9dcb8dff-d209-495b-9e6a-4615a6c6175d" z="100" cx="974.3972517176765" cy="99.17307692307692" class="recharts-symbols" transform="translate(974.3972517176765, 99.17307692307692)" d="M5.642,0A5.642,5.642,0,1,1,-5.642,0A5.642,5.642,0,1,1,5.642,0"></path></g><g class="recharts-layer recharts-scatter-symbol" role="img"><path name="Published Literature" fill="#59ACF2" stroke="black" opacity="0.8" width="11.283791670955125" height="11.283791670955125" x="983.4805276498442" y="52.83887339529166" id="8e3ba2c9-10c1-40d1-8fdf-89012648dd77" z="100" cx="989.1224234853219" cy="58.48076923076922" class="recharts-symbols" transform="translate(989.1224234853219, 58.48076923076922)" d="M5.642,0A5.642,5.642,0,1,1,-5.642,0A5.642,5.642,0,1,1,5.642,0"></path></g><g class="recharts-layer recharts-scatter-symbol" role="img"><path name="Published Literature" fill="#59ACF2" stroke="black" opacity="0.8" width="11.283791670955125" height="11.283791670955125" x="1046.222563877202" y="87.33887339529167" id="cf27cb2e-d9d4-4594-9895-efa9b1b30896" z="100" cx="1051.8644597126795" cy="92.98076923076924" class="recharts-symbols" transform="translate(1051.8644597126795, 92.98076923076924)" d="M5.642,0A5.642,5.642,0,1,1,-5.642,0A5.642,5.642,0,1,1,5.642,0"></path></g><g class="recharts-layer recharts-scatter-symbol" role="img"><path name="Published Literature" fill="#59ACF2" stroke="black" opacity="0.8" width="11.283791670955125" height="11.283791670955125" x="1044.9421141582764" y="54.16579647221476" id="fbec0f26-3c18-4456-bde4-17857564dd66" z="100" cx="1050.5840099937539" cy="59.80769230769232" class="recharts-symbols" transform="translate(1050.5840099937539, 59.80769230769232)" d="M5.642,0A5.642,5.642,0,1,1,-5.642,0A5.642,5.642,0,1,1,5.642,0"></path></g><g class="recharts-layer recharts-scatter-symbol" role="img"><path name="Published Literature" fill="#59ACF2" stroke="black" opacity="0.8" width="11.283791670955125" height="11.283791670955125" x="1044.9421141582764" y="37.35810416452246" id="a83996ff-48b5-40d5-ad7a-5c45fadb92c4" z="100" cx="1050.5840099937539" cy="43.00000000000002" class="recharts-symbols" transform="translate(1050.5840099937539, 43.00000000000002)" d="M5.642,0A5.642,5.642,0,1,1,-5.642,0A5.642,5.642,0,1,1,5.642,0"></path></g><g class="recharts-layer recharts-scatter-symbol" role="img"><path name="Published Literature" fill="#59ACF2" stroke="black" opacity="0.8" width="11.283791670955125" height="11.283791670955125" x="969.3955807416618" y="137.7619503183686" id="c4d99399-5814-4d20-93b9-6faf9a7b417e" z="100" cx="975.0374765771394" cy="143.40384615384616" class="recharts-symbols" transform="translate(975.0374765771394, 143.40384615384616)" d="M5.642,0A5.642,5.642,0,1,1,-5.642,0A5.642,5.642,0,1,1,5.642,0"></path></g><g class="recharts-layer recharts-scatter-symbol" role="img"><path name="Published Literature" fill="#59ACF2" stroke="black" opacity="0.8" width="11.283791670955125" height="11.283791670955125" x="982.8403027903814" y="182.87733493375322" id="69102219-0d50-46ae-bcca-8a2a39fbc371" z="100" cx="988.482198625859" cy="188.51923076923077" class="recharts-symbols" transform="translate(988.482198625859, 188.51923076923077)" d="M5.642,0A5.642,5.642,0,1,1,-5.642,0A5.642,5.642,0,1,1,5.642,0"></path></g><g class="recharts-layer recharts-scatter-symbol" role="img"><path name="Published Literature" fill="#59ACF2" stroke="black" opacity="0.8" width="11.283791670955125" height="11.283791670955125" x="905.3730947953782" y="82.91579647221477" id="d93589bf-3a91-4514-8ff6-b8ec62e7b2a9" z="100" cx="911.0149906308558" cy="88.55769230769232" class="recharts-symbols" transform="translate(911.0149906308558, 88.55769230769232)" d="M5.642,0A5.642,5.642,0,1,1,-5.642,0A5.642,5.642,0,1,1,5.642,0"></path></g><g class="recharts-layer recharts-scatter-symbol" role="img"><path name="Published Literature" fill="#59ACF2" stroke="black" opacity="0.8" width="11.283791670955125" height="11.283791670955125" x="921.3787162819491" y="170.93502724144554" id="28c1bd37-56fd-47c3-a930-383ce8618f10" z="100" cx="927.0206121174267" cy="176.5769230769231" class="recharts-symbols" transform="translate(927.0206121174267, 176.5769230769231)" d="M5.642,0A5.642,5.642,0,1,1,-5.642,0A5.642,5.642,0,1,1,5.642,0"></path></g><g class="recharts-layer recharts-scatter-symbol" role="img"><path name="Published Literature" fill="#59ACF2" stroke="black" opacity="0.8" width="11.283791670955125" height="11.283791670955125" x="974.5173796173644" y="92.20425801067628" id="0a40530a-3cd2-4d9e-ab6c-e0a0dc5b7ed7" z="100" cx="980.159275452842" cy="97.84615384615384" class="recharts-symbols" transform="translate(980.159275452842, 97.84615384615384)" d="M5.642,0A5.642,5.642,0,1,1,-5.642,0A5.642,5.642,0,1,1,5.642,0"></path></g><g class="recharts-layer recharts-scatter-symbol" role="img"><path name="Published Literature" fill="#59ACF2" stroke="black" opacity="0.8" width="11.283791670955125" height="11.283791670955125" x="984.1207525093071" y="83.35810416452244" id="31a4fcb0-748b-40ae-884f-d236ba49ea15" z="100" cx="989.7626483447847" cy="89.00000000000001" class="recharts-symbols" transform="translate(989.7626483447847, 89.00000000000001)" d="M5.642,0A5.642,5.642,0,1,1,-5.642,0A5.642,5.642,0,1,1,5.642,0"></path></g><g class="recharts-layer recharts-scatter-symbol" role="img"><path name="Published Literature" fill="#59ACF2" stroke="black" opacity="0.8" width="11.283791670955125" height="11.283791670955125" x="913.0557931089323" y="94.41579647221474" id="f41d5dfd-c769-41dd-881b-9dcfa9db0391" z="100" cx="918.69768894441" cy="100.05769230769229" class="recharts-symbols" transform="translate(918.69768894441, 100.05769230769229)" d="M5.642,0A5.642,5.642,0,1,1,-5.642,0A5.642,5.642,0,1,1,5.642,0"></path></g><g class="recharts-layer recharts-scatter-symbol" role="img"><path name="Published Literature" fill="#59ACF2" stroke="black" opacity="0.8" width="11.283791670955125" height="11.283791670955125" x="903.4524202169897" y="128.03118108759938" id="67425c98-fee8-4949-9734-b270f549fa2e" z="100" cx="909.0943160524673" cy="133.67307692307693" class="recharts-symbols" transform="translate(909.0943160524673, 133.67307692307693)" d="M5.642,0A5.642,5.642,0,1,1,-5.642,0A5.642,5.642,0,1,1,5.642,0"></path></g><g class="recharts-layer recharts-scatter-symbol" role="img"><path name="Published Literature" fill="#59ACF2" stroke="black" opacity="0.8" width="11.283791670955125" height="11.283791670955125" x="795.8946438272333" y="86.45425801067631" id="948d052b-0bfe-4e2f-917f-97d9a8bd25ec" z="100" cx="801.5365396627109" cy="92.09615384615387" class="recharts-symbols" transform="translate(801.5365396627109, 92.09615384615387)" d="M5.642,0A5.642,5.642,0,1,1,-5.642,0A5.642,5.642,0,1,1,5.642,0"></path></g><g class="recharts-layer recharts-scatter-symbol" role="img"><path name="Published Literature" fill="#59ACF2" stroke="black" opacity="0.8" width="11.283791670955125" height="11.283791670955125" x="852.8746563194256" y="130.24271954913783" id="43bd59bf-ec87-46e6-b4a5-332b9b69d39b" z="100" cx="858.5165521549033" cy="135.8846153846154" class="recharts-symbols" transform="translate(858.5165521549033, 135.8846153846154)" d="M5.642,0A5.642,5.642,0,1,1,-5.642,0A5.642,5.642,0,1,1,5.642,0"></path></g><g class="recharts-layer recharts-scatter-symbol" role="img"><path name="Published Literature" fill="#59ACF2" stroke="black" opacity="0.8" width="11.283791670955125" height="11.283791670955125" x="845.8321828653344" y="95.74271954913783" id="0873ffa5-cbe1-4f9b-a9b3-f20013716892" z="100" cx="851.474078700812" cy="101.3846153846154" class="recharts-symbols" transform="translate(851.474078700812, 101.3846153846154)" d="M5.642,0A5.642,5.642,0,1,1,-5.642,0A5.642,5.642,0,1,1,5.642,0"></path></g><g class="recharts-layer recharts-scatter-symbol" role="img"><path name="Published Literature" fill="#59ACF2" stroke="black" opacity="0.8" width="11.283791670955125" height="11.283791670955125" x="847.752857443723" y="43.55041185683013" id="10761c95-7af9-4717-a406-e91c434f3cc8" z="100" cx="853.3947532792006" cy="49.19230769230769" class="recharts-symbols" transform="translate(853.3947532792006, 49.19230769230769)" d="M5.642,0A5.642,5.642,0,1,1,-5.642,0A5.642,5.642,0,1,1,5.642,0"></path></g><g class="recharts-layer recharts-scatter-symbol" role="img"><path name="Published Literature" fill="#59ACF2" stroke="black" opacity="0.8" width="11.283791670955125" height="11.283791670955125" x="903.4524202169897" y="128.91579647221477" id="00e9c704-57ec-4f27-bbea-a8c0c088e905" z="100" cx="909.0943160524673" cy="134.55769230769232" class="recharts-symbols" transform="translate(909.0943160524673, 134.55769230769232)" d="M5.642,0A5.642,5.642,0,1,1,-5.642,0A5.642,5.642,0,1,1,5.642,0"></path></g><g class="recharts-layer recharts-scatter-symbol" role="img"><path name="Published Literature" fill="#59ACF2" stroke="black" opacity="0.8" width="11.283791670955125" height="11.283791670955125" x="916.8971422657092" y="95.74271954913783" id="633c33ad-8fc6-45b1-bf66-09064feeef21" z="100" cx="922.5390381011869" cy="101.3846153846154" class="recharts-symbols" transform="translate(922.5390381011869, 101.3846153846154)" d="M5.642,0A5.642,5.642,0,1,1,-5.642,0A5.642,5.642,0,1,1,5.642,0"></path></g><g class="recharts-layer recharts-scatter-symbol" role="img"><path name="Published Literature" fill="#59ACF2" stroke="black" opacity="0.8" width="11.283791670955125" height="11.283791670955125" x="795.8946438272333" y="131.56964262606093" id="2842038c-d73d-4c06-943c-9e06148b0095" z="100" cx="801.5365396627109" cy="137.21153846153848" class="recharts-symbols" transform="translate(801.5365396627109, 137.21153846153848)" d="M5.642,0A5.642,5.642,0,1,1,-5.642,0A5.642,5.642,0,1,1,5.642,0"></path></g><g class="recharts-layer recharts-scatter-symbol" role="img"><path name="Published Literature" fill="#59ACF2" stroke="black" opacity="0.8" width="11.283791670955125" height="11.283791670955125" x="793.9739692488448" y="126.2619503183686" id="433e635e-aeef-44e0-8d62-1a53518670af" z="100" cx="799.6158650843224" cy="131.90384615384616" class="recharts-symbols" transform="translate(799.6158650843224, 131.90384615384616)" d="M5.642,0A5.642,5.642,0,1,1,-5.642,0A5.642,5.642,0,1,1,5.642,0"></path></g><g class="recharts-layer recharts-scatter-symbol" role="img"><path name="Published Literature" fill="#59ACF2" stroke="black" opacity="0.8" width="11.283791670955125" height="11.283791670955125" x="839.4299342707061" y="139.53118108759938" id="004c80b0-a4a4-4579-8aef-ffff1b9bd5eb" z="100" cx="845.0718301061837" cy="145.17307692307693" class="recharts-symbols" transform="translate(845.0718301061837, 145.17307692307693)" d="M5.642,0A5.642,5.642,0,1,1,-5.642,0A5.642,5.642,0,1,1,5.642,0"></path></g><g class="recharts-layer recharts-scatter-symbol" role="img"><path name="Published Literature" fill="#59ACF2" stroke="black" opacity="0.8" width="11.283791670955125" height="11.283791670955125" x="864.3987037897566" y="139.97348877990706" id="b57b4217-1471-452c-a4a6-b516cd2ee183" z="100" cx="870.0405996252342" cy="145.6153846153846" class="recharts-symbols" transform="translate(870.0405996252342, 145.6153846153846)" d="M5.642,0A5.642,5.642,0,1,1,-5.642,0A5.642,5.642,0,1,1,5.642,0"></path></g><g class="recharts-layer recharts-scatter-symbol" role="img"><path name="Published Literature" fill="#59ACF2" stroke="black" opacity="0.8" width="11.283791670955125" height="11.283791670955125" x="857.3562303356656" y="131.12733493375322" id="0766d47f-6ad1-4665-acd9-635c2ccb73a8" z="100" cx="862.9981261711432" cy="136.76923076923077" class="recharts-symbols" transform="translate(862.9981261711432, 136.76923076923077)" d="M5.642,0A5.642,5.642,0,1,1,-5.642,0A5.642,5.642,0,1,1,5.642,0"></path></g><g class="recharts-layer recharts-scatter-symbol" role="img"><path name="Published Literature" fill="#59ACF2" stroke="black" opacity="0.8" width="11.283791670955125" height="11.283791670955125" x="724.1894595673957" y="186.85810416452244" id="7e95b279-df5e-42cb-9b5c-f00b7f61bc50" z="100" cx="729.8313554028733" cy="192.5" class="recharts-symbols" transform="translate(729.8313554028733, 192.5)" d="M5.642,0A5.642,5.642,0,1,1,-5.642,0A5.642,5.642,0,1,1,5.642,0"></path></g><g class="recharts-layer recharts-scatter-symbol" role="img"><path name="Published Literature" fill="#59ACF2" stroke="black" opacity="0.8" width="11.283791670955125" height="11.283791670955125" x="779.8890223406625" y="182.87733493375322" id="261fdcec-f88e-4ee5-b493-c4ab842314e4" z="100" cx="785.5309181761401" cy="188.51923076923077" class="recharts-symbols" transform="translate(785.5309181761401, 188.51923076923077)" d="M5.642,0A5.642,5.642,0,1,1,-5.642,0A5.642,5.642,0,1,1,5.642,0"></path></g><g class="recharts-layer recharts-scatter-symbol" role="img"><path name="Published Literature" fill="#59ACF2" stroke="black" opacity="0.8" width="11.283791670955125" height="11.283791670955125" x="861.1975794924426" y="95.30041185683012" id="99bb9987-2fe8-4e83-933d-0a3c633808d2" z="100" cx="866.8394753279202" cy="100.9423076923077" class="recharts-symbols" transform="translate(866.8394753279202, 100.9423076923077)" d="M5.642,0A5.642,5.642,0,1,1,-5.642,0A5.642,5.642,0,1,1,5.642,0"></path></g><g class="recharts-layer recharts-scatter-symbol" role="img"><path name="Published Literature" fill="#59ACF2" stroke="black" opacity="0.8" width="11.283791670955125" height="11.283791670955125" x="852.2344314599628" y="142.18502724144554" id="b04e7ccd-11ca-4a25-ba83-880a7d2573ae" z="100" cx="857.8763272954404" cy="147.8269230769231" class="recharts-symbols" transform="translate(857.8763272954404, 147.8269230769231)" d="M5.642,0A5.642,5.642,0,1,1,-5.642,0A5.642,5.642,0,1,1,5.642,0"></path></g><g class="recharts-layer recharts-scatter-symbol" role="img"><path name="Published Literature" fill="#59ACF2" stroke="black" opacity="0.8" width="11.283791670955125" height="11.283791670955125" x="842.6310585680202" y="39.56964262606091" id="fc3eb5c5-1df5-40ed-ace7-f00c0fb40a1c" z="100" cx="848.2729544034978" cy="45.211538461538474" class="recharts-symbols" transform="translate(848.2729544034978, 45.211538461538474)" d="M5.642,0A5.642,5.642,0,1,1,-5.642,0A5.642,5.642,0,1,1,5.642,0"></path></g><g class="recharts-layer recharts-scatter-symbol" role="img"><path name="Published Literature" fill="#59ACF2" stroke="black" opacity="0.8" width="11.283791670955125" height="11.283791670955125" x="798.4555432650845" y="137.7619503183686" id="68383860-d71a-4e58-8cab-b9a843a64ff3" z="100" cx="804.0974391005622" cy="143.40384615384616" class="recharts-symbols" transform="translate(804.0974391005622, 143.40384615384616)" d="M5.642,0A5.642,5.642,0,1,1,-5.642,0A5.642,5.642,0,1,1,5.642,0"></path></g><g class="recharts-layer recharts-scatter-symbol" role="img"><path name="Published Literature" fill="#59ACF2" stroke="black" opacity="0.8" width="11.283791670955125" height="11.283791670955125" x="846.4724077247972" y="185.53118108759938" id="4d91f9ea-e8af-4c0f-af08-88600f3d8341" z="100" cx="852.1143035602748" cy="191.17307692307693" class="recharts-symbols" transform="translate(852.1143035602748, 191.17307692307693)" d="M5.642,0A5.642,5.642,0,1,1,-5.642,0A5.642,5.642,0,1,1,5.642,0"></path></g><g class="recharts-layer recharts-scatter-symbol" role="img"><path name="Published Literature" fill="#59ACF2" stroke="black" opacity="0.8" width="11.283791670955125" height="11.283791670955125" x="849.0333071626487" y="125.8196426260609" id="d3c3cadd-4735-4964-8d39-9340ed15e2e4" z="100" cx="854.6752029981263" cy="131.46153846153845" class="recharts-symbols" transform="translate(854.6752029981263, 131.46153846153845)" d="M5.642,0A5.642,5.642,0,1,1,-5.642,0A5.642,5.642,0,1,1,5.642,0"></path></g><g class="recharts-layer recharts-scatter-symbol" role="img"><path name="Published Literature" fill="#59ACF2" stroke="black" opacity="0.8" width="11.283791670955125" height="11.283791670955125" x="1055.185711909682" y="40.0119503183686" id="713b0b91-e4ce-4002-be05-6d01508db161" z="100" cx="1060.8276077451594" cy="45.65384615384616" class="recharts-symbols" transform="translate(1060.8276077451594, 45.65384615384616)" d="M5.642,0A5.642,5.642,0,1,1,-5.642,0A5.642,5.642,0,1,1,5.642,0"></path></g><g class="recharts-layer recharts-scatter-symbol" role="img"><path name="Published Literature" fill="#59ACF2" stroke="black" opacity="0.8" width="11.283791670955125" height="11.283791670955125" x="1040.4605401420365" y="83.80041185683015" id="0dbfa221-3039-4bc9-84ef-5cf572e0168c" z="100" cx="1046.102435977514" cy="89.44230769230771" class="recharts-symbols" transform="translate(1046.102435977514, 89.44230769230771)" d="M5.642,0A5.642,5.642,0,1,1,-5.642,0A5.642,5.642,0,1,1,5.642,0"></path></g><g class="recharts-layer recharts-scatter-symbol" role="img"><path name="Published Literature" fill="#59ACF2" stroke="black" opacity="0.8" width="11.283791670955125" height="11.283791670955125" x="984.7609773687698" y="135.10810416452247" id="20dd56a0-f18e-458a-be64-147485f58e6c" z="100" cx="990.4028732042474" cy="140.75000000000003" class="recharts-symbols" transform="translate(990.4028732042474, 140.75000000000003)" d="M5.642,0A5.642,5.642,0,1,1,-5.642,0A5.642,5.642,0,1,1,5.642,0"></path></g><g class="recharts-layer recharts-scatter-symbol" role="img"><path name="Published Literature" fill="#59ACF2" stroke="black" opacity="0.8" width="11.283791670955125" height="11.283791670955125" x="1030.8571672500943" y="140.85810416452244" id="96e1fb82-8fae-4c1d-9a72-86e67dd9a6d7" z="100" cx="1036.4990630855718" cy="146.5" class="recharts-symbols" transform="translate(1036.4990630855718, 146.5)" d="M5.642,0A5.642,5.642,0,1,1,-5.642,0A5.642,5.642,0,1,1,5.642,0"></path></g><g class="recharts-layer recharts-scatter-symbol" role="img"><path name="Published Literature" fill="#59ACF2" stroke="black" opacity="0.8" width="11.283791670955125" height="11.283791670955125" x="988.6023265255468" y="134.22348877990703" id="10295dca-c98d-4890-a505-41776a3a5ced" z="100" cx="994.2442223610244" cy="139.86538461538458" class="recharts-symbols" transform="translate(994.2442223610244, 139.86538461538458)" d="M5.642,0A5.642,5.642,0,1,1,-5.642,0A5.642,5.642,0,1,1,5.642,0"></path></g><g class="recharts-layer recharts-scatter-symbol" role="img"><path name="Published Literature" fill="#59ACF2" stroke="black" opacity="0.8" width="11.283791670955125" height="11.283791670955125" x="1039.8203152825738" y="126.2619503183686" id="c6956c52-8ac1-47a6-be15-01b67a161b3b" z="100" cx="1045.4622111180513" cy="131.90384615384616" class="recharts-symbols" transform="translate(1045.4622111180513, 131.90384615384616)" d="M5.642,0A5.642,5.642,0,1,1,-5.642,0A5.642,5.642,0,1,1,5.642,0"></path></g><g class="recharts-layer recharts-scatter-symbol" role="img"><path name="Published Literature" fill="#59ACF2" stroke="black" opacity="0.8" width="11.283791670955125" height="11.283791670955125" x="976.4380541957529" y="140.85810416452244" id="6dda8c0b-220f-45d8-9301-16c91a1f8856" z="100" cx="982.0799500312305" cy="146.5" class="recharts-symbols" transform="translate(982.0799500312305, 146.5)" d="M5.642,0A5.642,5.642,0,1,1,-5.642,0A5.642,5.642,0,1,1,5.642,0"></path></g><g class="recharts-layer recharts-scatter-symbol" role="img"><path name="Published Literature" fill="#59ACF2" stroke="black" opacity="0.8" width="11.283791670955125" height="11.283791670955125" x="1055.185711909682" y="175.80041185683012" id="169a6ff3-e897-4992-ba7b-cce36f91b006" z="100" cx="1060.8276077451594" cy="181.44230769230768" class="recharts-symbols" transform="translate(1060.8276077451594, 181.44230769230768)" d="M5.642,0A5.642,5.642,0,1,1,-5.642,0A5.642,5.642,0,1,1,5.642,0"></path></g><g class="recharts-layer recharts-scatter-symbol" role="img"><path name="Published Literature" fill="#59ACF2" stroke="black" opacity="0.8" width="11.283791670955125" height="11.283791670955125" x="968.7553558821988" y="36.47348877990705" id="e6f59a05-75c8-4198-ba54-d63c387a9541" z="100" cx="974.3972517176765" cy="42.11538461538461" class="recharts-symbols" transform="translate(974.3972517176765, 42.11538461538461)" d="M5.642,0A5.642,5.642,0,1,1,-5.642,0A5.642,5.642,0,1,1,5.642,0"></path></g><g class="recharts-layer recharts-scatter-symbol" role="img"><path name="Published Literature" fill="#59ACF2" stroke="black" opacity="0.8" width="11.283791670955125" height="11.283791670955125" x="975.1576044768274" y="86.45425801067631" id="2b515730-da8d-445c-893e-cfa8b93c43be" z="100" cx="980.799500312305" cy="92.09615384615387" class="recharts-symbols" transform="translate(980.799500312305, 92.09615384615387)" d="M5.642,0A5.642,5.642,0,1,1,-5.642,0A5.642,5.642,0,1,1,5.642,0"></path></g><g class="recharts-layer recharts-scatter-symbol" role="img"><path name="Published Literature" fill="#59ACF2" stroke="black" opacity="0.8" width="11.283791670955125" height="11.283791670955125" x="980.9196282119927" y="138.2042580106763" id="026b41ca-dc42-41d8-b73f-60b5d9417f45" z="100" cx="986.5615240474704" cy="143.84615384615387" class="recharts-symbols" transform="translate(986.5615240474704, 143.84615384615387)" d="M5.642,0A5.642,5.642,0,1,1,-5.642,0A5.642,5.642,0,1,1,5.642,0"></path></g><g class="recharts-layer recharts-scatter-symbol" role="img"><path name="Published Literature" fill="#59ACF2" stroke="black" opacity="0.8" width="11.283791670955125" height="11.283791670955125" x="970.0358056011246" y="124.93502724144551" id="ee3f4b42-c354-4f8c-80f8-2b8b29183df5" z="100" cx="975.6777014366022" cy="130.57692307692307" class="recharts-symbols" transform="translate(975.6777014366022, 130.57692307692307)" d="M5.642,0A5.642,5.642,0,1,1,-5.642,0A5.642,5.642,0,1,1,5.642,0"></path></g><g class="recharts-layer recharts-scatter-symbol" role="img"><path name="Published Literature" fill="#59ACF2" stroke="black" opacity="0.8" width="11.283791670955125" height="11.283791670955125" x="849.6735320221115" y="50.627334933753204" id="5d829e7e-7aa9-4868-b752-c5c82f1db484" z="100" cx="855.3154278575892" cy="56.26923076923077" class="recharts-symbols" transform="translate(855.3154278575892, 56.26923076923077)" d="M5.642,0A5.642,5.642,0,1,1,-5.642,0A5.642,5.642,0,1,1,5.642,0"></path></g><g class="recharts-layer recharts-scatter-symbol" role="img"><path name="Published Literature" fill="#59ACF2" stroke="black" opacity="0.8" width="11.283791670955125" height="11.283791670955125" x="923.2993908603374" y="45.761950318368584" id="c511d55d-6c44-4500-ad9e-3ca44fc10030" z="100" cx="928.941286695815" cy="51.403846153846146" class="recharts-symbols" transform="translate(928.941286695815, 51.403846153846146)" d="M5.642,0A5.642,5.642,0,1,1,-5.642,0A5.642,5.642,0,1,1,5.642,0"></path></g><g class="recharts-layer recharts-scatter-symbol" role="img"><path name="Published Literature" fill="#59ACF2" stroke="black" opacity="0.8" width="11.283791670955125" height="11.283791670955125" x="988.6023265255468" y="132.4542580106763" id="9a0b04b6-faed-47e2-9cbe-ed842e80379f" z="100" cx="994.2442223610244" cy="138.09615384615387" class="recharts-symbols" transform="translate(994.2442223610244, 138.09615384615387)" d="M5.642,0A5.642,5.642,0,1,1,-5.642,0A5.642,5.642,0,1,1,5.642,0"></path></g><g class="recharts-layer recharts-scatter-symbol" role="img"><path name="Published Literature" fill="#59ACF2" stroke="black" opacity="0.8" width="11.283791670955125" height="11.283791670955125" x="912.4155682494694" y="177.5696426260609" id="80cc4016-beaf-40cb-b5f6-37c6b26fb391" z="100" cx="918.057464084947" cy="183.21153846153845" class="recharts-symbols" transform="translate(918.057464084947, 183.21153846153845)" d="M5.642,0A5.642,5.642,0,1,1,-5.642,0A5.642,5.642,0,1,1,5.642,0"></path></g><g class="recharts-layer recharts-scatter-symbol" role="img"><path name="Published Literature" fill="#59ACF2" stroke="black" opacity="0.8" width="11.283791670955125" height="11.283791670955125" x="842.6310585680202" y="179.78118108759938" id="6fab6870-426c-47ef-b952-e16720fdcbdd" z="100" cx="848.2729544034978" cy="185.42307692307693" class="recharts-symbols" transform="translate(848.2729544034978, 185.42307692307693)" d="M5.642,0A5.642,5.642,0,1,1,-5.642,0A5.642,5.642,0,1,1,5.642,0"></path></g><g class="recharts-layer recharts-scatter-symbol" role="img"><path name="Published Literature" fill="#59ACF2" stroke="black" opacity="0.8" width="11.283791670955125" height="11.283791670955125" x="847.752857443723" y="81.58887339529167" id="8ca6d2fa-020c-475e-81e5-34904eca687a" z="100" cx="853.3947532792006" cy="87.23076923076923" class="recharts-symbols" transform="translate(853.3947532792006, 87.23076923076923)" d="M5.642,0A5.642,5.642,0,1,1,-5.642,0A5.642,5.642,0,1,1,5.642,0"></path></g><g class="recharts-layer recharts-scatter-symbol" role="img"><path name="Published Literature" fill="#59ACF2" stroke="black" opacity="0.8" width="11.283791670955125" height="11.283791670955125" x="1055.185711909682" y="46.20425801067628" id="cdff92fc-3fdf-4b2c-b80e-f9b1d9e339f5" z="100" cx="1060.8276077451594" cy="51.84615384615384" class="recharts-symbols" transform="translate(1060.8276077451594, 51.84615384615384)" d="M5.642,0A5.642,5.642,0,1,1,-5.642,0A5.642,5.642,0,1,1,5.642,0"></path></g><g class="recharts-layer recharts-scatter-symbol" role="img"><path name="Published Literature" fill="#59ACF2" stroke="black" opacity="0.8" width="11.283791670955125" height="11.283791670955125" x="1032.13761696902" y="86.89656570298396" id="2b6b8363-b863-4073-8cbb-7087a4dd9a99" z="100" cx="1037.7795128044975" cy="92.53846153846153" class="recharts-symbols" transform="translate(1037.7795128044975, 92.53846153846153)" d="M5.642,0A5.642,5.642,0,1,1,-5.642,0A5.642,5.642,0,1,1,5.642,0"></path></g><g class="recharts-layer recharts-scatter-symbol" role="img"><path name="Published Literature" fill="#59ACF2" stroke="black" opacity="0.8" width="11.283791670955125" height="11.283791670955125" x="1047.5030135961279" y="88.66579647221477" id="57ace4d1-9ad3-47fb-8474-28db1d7c206b" z="100" cx="1053.1449094316054" cy="94.30769230769232" class="recharts-symbols" transform="translate(1053.1449094316054, 94.30769230769232)" d="M5.642,0A5.642,5.642,0,1,1,-5.642,0A5.642,5.642,0,1,1,5.642,0"></path></g><g class="recharts-layer recharts-scatter-symbol" role="img"><path name="Published Literature" fill="#59ACF2" stroke="black" opacity="0.8" width="11.283791670955125" height="11.283791670955125" x="1042.3812147204253" y="131.56964262606093" id="424bb80c-46f3-4278-8b5c-f43d15d1155e" z="100" cx="1048.0231105559028" cy="137.21153846153848" class="recharts-symbols" transform="translate(1048.0231105559028, 137.21153846153848)" d="M5.642,0A5.642,5.642,0,1,1,-5.642,0A5.642,5.642,0,1,1,5.642,0"></path></g><g class="recharts-layer recharts-scatter-symbol" role="img"><path name="Published Literature" fill="#59ACF2" stroke="black" opacity="0.8" width="11.283791670955125" height="11.283791670955125" x="971.3162553200502" y="125.8196426260609" id="85c08244-bd93-4096-b24a-338319c5c8d9" z="100" cx="976.9581511555278" cy="131.46153846153845" class="recharts-symbols" transform="translate(976.9581511555278, 131.46153846153845)" d="M5.642,0A5.642,5.642,0,1,1,-5.642,0A5.642,5.642,0,1,1,5.642,0"></path></g><g class="recharts-layer recharts-scatter-symbol" role="img"><path name="Published Literature" fill="#59ACF2" stroke="black" opacity="0.8" width="11.283791670955125" height="11.283791670955125" x="992.4436756823238" y="81.58887339529167" id="dcd5f067-56e0-4ce1-87e6-0e10fa34b190" z="100" cx="998.0855715178014" cy="87.23076923076923" class="recharts-symbols" transform="translate(998.0855715178014, 87.23076923076923)" d="M5.642,0A5.642,5.642,0,1,1,-5.642,0A5.642,5.642,0,1,1,5.642,0"></path></g><g class="recharts-layer recharts-scatter-symbol" role="img"><path name="Published Literature" fill="#59ACF2" stroke="black" opacity="0.8" width="11.283791670955125" height="11.283791670955125" x="785.0108212163652" y="92.64656570298399" id="2ed64525-dc96-48e7-8a18-609a962cc1b7" z="100" cx="790.6527170518428" cy="98.28846153846155" class="recharts-symbols" transform="translate(790.6527170518428, 98.28846153846155)" d="M5.642,0A5.642,5.642,0,1,1,-5.642,0A5.642,5.642,0,1,1,5.642,0"></path></g><g class="recharts-layer recharts-scatter-symbol" role="img"><path name="Published Literature" fill="#59ACF2" stroke="black" opacity="0.8" width="11.283791670955125" height="11.283791670955125" x="775.4074483244226" y="52.83887339529166" id="d217d538-862b-4ceb-a849-6487697fc7fa" z="100" cx="781.0493441599002" cy="58.48076923076922" class="recharts-symbols" transform="translate(781.0493441599002, 58.48076923076922)" d="M5.642,0A5.642,5.642,0,1,1,-5.642,0A5.642,5.642,0,1,1,5.642,0"></path></g></g></g></g><g class="recharts-layer recharts-scatter"><g class="recharts-layer"><g class="recharts-layer"><g class="recharts-layer recharts-scatter-symbol" role="img"><path name="Gray Literature" fill="#556270" stroke="black" opacity="0.8" width="11.283791670955125" height="11.283791670955125" x="911.1351185305437" y="48.415796472214744" id="22d13157-9e7a-46bd-8822-035e96a62885" z="100" cx="916.7770143660213" cy="54.05769230769231" class="recharts-symbols" transform="translate(916.7770143660213, 54.05769230769231)" d="M5.642,0A5.642,5.642,0,1,1,-5.642,0A5.642,5.642,0,1,1,5.642,0"></path></g><g class="recharts-layer recharts-scatter-symbol" role="img"><path name="Gray Literature" fill="#556270" stroke="black" opacity="0.8" width="11.283791670955125" height="11.283791670955125" x="982.2000779309185" y="180.6657964722148" id="5feb3624-580d-4413-9101-f6f36cabcee5" z="100" cx="987.8419737663961" cy="186.30769230769235" class="recharts-symbols" transform="translate(987.8419737663961, 186.30769230769235)" d="M5.642,0A5.642,5.642,0,1,1,-5.642,0A5.642,5.642,0,1,1,5.642,0"></path></g><g class="recharts-layer recharts-scatter-symbol" role="img"><path name="Gray Literature" fill="#556270" stroke="black" opacity="0.8" width="11.283791670955125" height="11.283791670955125" x="990.5230011039354" y="142.62733493375322" id="1d83b670-e15a-4bfe-afd0-af0987c507c5" z="100" cx="996.164896939413" cy="148.26923076923077" class="recharts-symbols" transform="translate(996.164896939413, 148.26923076923077)" d="M5.642,0A5.642,5.642,0,1,1,-5.642,0A5.642,5.642,0,1,1,5.642,0"></path></g><g class="recharts-layer recharts-scatter-symbol" role="img"><path name="Gray Literature" fill="#556270" stroke="black" opacity="0.8" width="11.283791670955125" height="11.283791670955125" x="973.2369298984388" y="136.87733493375325" id="cdd40748-a493-4a64-9b66-096e86ff6774" z="100" cx="978.8788257339164" cy="142.5192307692308" class="recharts-symbols" transform="translate(978.8788257339164, 142.5192307692308)" d="M5.642,0A5.642,5.642,0,1,1,-5.642,0A5.642,5.642,0,1,1,5.642,0"></path></g><g class="recharts-layer recharts-scatter-symbol" role="img"><path name="Gray Literature" fill="#556270" stroke="black" opacity="0.8" width="11.283791670955125" height="11.283791670955125" x="928.4211897360402" y="174.47348877990703" id="2dca9ee6-caea-4944-b218-63810417815a" z="100" cx="934.0630855715178" cy="180.11538461538458" class="recharts-symbols" transform="translate(934.0630855715178, 180.11538461538458)" d="M5.642,0A5.642,5.642,0,1,1,-5.642,0A5.642,5.642,0,1,1,5.642,0"></path></g><g class="recharts-layer recharts-scatter-symbol" role="img"><path name="Gray Literature" fill="#556270" stroke="black" opacity="0.8" width="11.283791670955125" height="11.283791670955125" x="912.4155682494694" y="173.14656570298396" id="0a0d7ae1-e8d7-4cd1-9c8c-3c1dd7cd4066" z="100" cx="918.057464084947" cy="178.78846153846152" class="recharts-symbols" transform="translate(918.057464084947, 178.78846153846152)" d="M5.642,0A5.642,5.642,0,1,1,-5.642,0A5.642,5.642,0,1,1,5.642,0"></path></g><g class="recharts-layer recharts-scatter-symbol" role="img"><path name="Gray Literature" fill="#556270" stroke="black" opacity="0.8" width="11.283791670955125" height="11.283791670955125" x="918.177591984635" y="181.99271954913783" id="ad486829-918a-4a32-b5ad-b1b7b6f2a25f" z="100" cx="923.8194878201126" cy="187.6346153846154" class="recharts-symbols" transform="translate(923.8194878201126, 187.6346153846154)" d="M5.642,0A5.642,5.642,0,1,1,-5.642,0A5.642,5.642,0,1,1,5.642,0"></path></g><g class="recharts-layer recharts-scatter-symbol" role="img"><path name="Gray Literature" fill="#556270" stroke="black" opacity="0.8" width="11.283791670955125" height="11.283791670955125" x="991.8034508228609" y="47.53118108759937" id="586ec469-f686-42ec-978c-096f94b8f22a" z="100" cx="997.4453466583385" cy="53.173076923076934" class="recharts-symbols" transform="translate(997.4453466583385, 53.173076923076934)" d="M5.642,0A5.642,5.642,0,1,1,-5.642,0A5.642,5.642,0,1,1,5.642,0"></path></g><g class="recharts-layer recharts-scatter-symbol" role="img"><path name="Gray Literature" fill="#556270" stroke="black" opacity="0.8" width="11.283791670955125" height="11.283791670955125" x="1100.0014520720804" y="37.800411856830145" id="7b3708eb-1aa4-4967-b371-e50a8b7ba550" z="100" cx="1105.6433479075579" cy="43.44230769230771" class="recharts-symbols" transform="translate(1105.6433479075579, 43.44230769230771)" d="M5.642,0A5.642,5.642,0,1,1,-5.642,0A5.642,5.642,0,1,1,5.642,0"></path></g><g class="recharts-layer recharts-scatter-symbol" role="img"><path name="Gray Literature" fill="#556270" stroke="black" opacity="0.8" width="11.283791670955125" height="11.283791670955125" x="1108.96460010456" y="127.14656570298399" id="b33d0705-a6b3-4d40-a6b4-174ad7f906eb" z="100" cx="1114.6064959400376" cy="132.78846153846155" class="recharts-symbols" transform="translate(1114.6064959400376, 132.78846153846155)" d="M5.642,0A5.642,5.642,0,1,1,-5.642,0A5.642,5.642,0,1,1,5.642,0"></path></g><g class="recharts-layer recharts-scatter-symbol" role="img"><path name="Gray Literature" fill="#556270" stroke="black" opacity="0.8" width="11.283791670955125" height="11.283791670955125" x="1117.287523277577" y="125.37733493375322" id="f43c5ba6-8191-4ba4-be1b-4b9c6e38655b" z="100" cx="1122.9294191130546" cy="131.01923076923077" class="recharts-symbols" transform="translate(1122.9294191130546, 131.01923076923077)" d="M5.642,0A5.642,5.642,0,1,1,-5.642,0A5.642,5.642,0,1,1,5.642,0"></path></g><g class="recharts-layer recharts-scatter-symbol" role="img"><path name="Gray Literature" fill="#556270" stroke="black" opacity="0.8" width="11.283791670955125" height="11.283791670955125" x="1097.4405526342289" y="186.41579647221477" id="112f79c5-b755-49df-bc19-840c4ed58157" z="100" cx="1103.0824484697064" cy="192.05769230769232" class="recharts-symbols" transform="translate(1103.0824484697064, 192.05769230769232)" d="M5.642,0A5.642,5.642,0,1,1,-5.642,0A5.642,5.642,0,1,1,5.642,0"></path></g><g class="recharts-layer recharts-scatter-symbol" role="img"><path name="Gray Literature" fill="#556270" stroke="black" opacity="0.8" width="11.283791670955125" height="11.283791670955125" x="1054.545487050219" y="130.6850272414455" id="50db8076-4797-4409-b79b-920594c159b2" z="100" cx="1060.1873828856965" cy="136.32692307692307" class="recharts-symbols" transform="translate(1060.1873828856965, 136.32692307692307)" d="M5.642,0A5.642,5.642,0,1,1,-5.642,0A5.642,5.642,0,1,1,5.642,0"></path></g><g class="recharts-layer recharts-scatter-symbol" role="img"><path name="Gray Literature" fill="#556270" stroke="black" opacity="0.8" width="11.283791670955125" height="11.283791670955125" x="1030.8571672500943" y="171.37733493375322" id="7a2b5e68-9451-48f0-8191-2538623c5267" z="100" cx="1036.4990630855718" cy="177.01923076923077" class="recharts-symbols" transform="translate(1036.4990630855718, 177.01923076923077)" d="M5.642,0A5.642,5.642,0,1,1,-5.642,0A5.642,5.642,0,1,1,5.642,0"></path></g><g class="recharts-layer recharts-scatter-symbol" role="img"><path name="Gray Literature" fill="#556270" stroke="black" opacity="0.8" width="11.283791670955125" height="11.283791670955125" x="1043.661664439351" y="174.91579647221477" id="878cd897-459c-4b5b-8228-07c5ac80222a" z="100" cx="1049.3035602748284" cy="180.55769230769232" class="recharts-symbols" transform="translate(1049.3035602748284, 180.55769230769232)" d="M5.642,0A5.642,5.642,0,1,1,-5.642,0A5.642,5.642,0,1,1,5.642,0"></path></g><g class="recharts-layer recharts-scatter-symbol" role="img"><path name="Gray Literature" fill="#556270" stroke="black" opacity="0.8" width="11.283791670955125" height="11.283791670955125" x="1036.6191909852596" y="125.37733493375322" id="72d60c6f-93bb-40d9-bc1e-071ef12b371d" z="100" cx="1042.261086820737" cy="131.01923076923077" class="recharts-symbols" transform="translate(1042.261086820737, 131.01923076923077)" d="M5.642,0A5.642,5.642,0,1,1,-5.642,0A5.642,5.642,0,1,1,5.642,0"></path></g><g class="recharts-layer recharts-scatter-symbol" role="img"><path name="Gray Literature" fill="#556270" stroke="black" opacity="0.8" width="11.283791670955125" height="11.283791670955125" x="1036.6191909852596" y="141.74271954913786" id="c32f140f-5016-4200-94c7-c222e72d1e62" z="100" cx="1042.261086820737" cy="147.38461538461542" class="recharts-symbols" transform="translate(1042.261086820737, 147.38461538461542)" d="M5.642,0A5.642,5.642,0,1,1,-5.642,0A5.642,5.642,0,1,1,5.642,0"></path></g><g class="recharts-layer recharts-scatter-symbol" role="img"><path name="Gray Literature" fill="#556270" stroke="black" opacity="0.8" width="11.283791670955125" height="11.283791670955125" x="1048.1432384555908" y="186.41579647221477" id="08c029e2-646a-4b03-ba5f-8d098c24b0fd" z="100" cx="1053.7851342910683" cy="192.05769230769232" class="recharts-symbols" transform="translate(1053.7851342910683, 192.05769230769232)" d="M5.642,0A5.642,5.642,0,1,1,-5.642,0A5.642,5.642,0,1,1,5.642,0"></path></g><g class="recharts-layer recharts-scatter-symbol" role="img"><path name="Gray Literature" fill="#556270" stroke="black" opacity="0.8" width="11.283791670955125" height="11.283791670955125" x="991.8034508228609" y="129.80041185683012" id="c0dfd3d3-51cd-4c07-b435-cb6dea474c75" z="100" cx="997.4453466583385" cy="135.44230769230768" class="recharts-symbols" transform="translate(997.4453466583385, 135.44230769230768)" d="M5.642,0A5.642,5.642,0,1,1,-5.642,0A5.642,5.642,0,1,1,5.642,0"></path></g><g class="recharts-layer recharts-scatter-symbol" role="img"><path name="Gray Literature" fill="#556270" stroke="black" opacity="0.8" width="11.283791670955125" height="11.283791670955125" x="975.7978293362901" y="132.01195031836858" id="aa814434-02cc-4677-a1f9-7391a39ab292" z="100" cx="981.4397251717677" cy="137.65384615384613" class="recharts-symbols" transform="translate(981.4397251717677, 137.65384615384613)" d="M5.642,0A5.642,5.642,0,1,1,-5.642,0A5.642,5.642,0,1,1,5.642,0"></path></g><g class="recharts-layer recharts-scatter-symbol" role="img"><path name="Gray Literature" fill="#556270" stroke="black" opacity="0.8" width="11.283791670955125" height="11.283791670955125" x="724.8296844268584" y="42.66579647221477" id="c4aab7a3-85f9-4be8-b6ca-4daf70e6748a" z="100" cx="730.471580262336" cy="48.307692307692335" class="recharts-symbols" transform="translate(730.471580262336, 48.307692307692335)" d="M5.642,0A5.642,5.642,0,1,1,-5.642,0A5.642,5.642,0,1,1,5.642,0"></path></g><g class="recharts-layer recharts-scatter-symbol" role="img"><path name="Gray Literature" fill="#556270" stroke="black" opacity="0.8" width="11.283791670955125" height="11.283791670955125" x="732.5123827404125" y="47.973488779907086" id="42f72b30-da42-4e35-923a-1ea35aabecec" z="100" cx="738.1542785758901" cy="53.61538461538465" class="recharts-symbols" transform="translate(738.1542785758901, 53.61538461538465)" d="M5.642,0A5.642,5.642,0,1,1,-5.642,0A5.642,5.642,0,1,1,5.642,0"></path></g><g class="recharts-layer recharts-scatter-symbol" role="img"><path name="Gray Literature" fill="#556270" stroke="black" opacity="0.8" width="11.283791670955125" height="11.283791670955125" x="720.9883352700815" y="37.35810416452246" id="5665da49-cced-4444-bc41-5148bd555212" z="100" cx="726.6302311055591" cy="43.00000000000002" class="recharts-symbols" transform="translate(726.6302311055591, 43.00000000000002)" d="M5.642,0A5.642,5.642,0,1,1,-5.642,0A5.642,5.642,0,1,1,5.642,0"></path></g><g class="recharts-layer recharts-scatter-symbol" role="img"><path name="Gray Literature" fill="#556270" stroke="black" opacity="0.8" width="11.283791670955125" height="11.283791670955125" x="729.9514833025611" y="43.992719549137824" id="ace4b192-8614-4c60-be4a-35b20c2f7dc7" z="100" cx="735.5933791380387" cy="49.63461538461539" class="recharts-symbols" transform="translate(735.5933791380387, 49.63461538461539)" d="M5.642,0A5.642,5.642,0,1,1,-5.642,0A5.642,5.642,0,1,1,5.642,0"></path></g><g class="recharts-layer recharts-scatter-symbol" role="img"><path name="Gray Literature" fill="#556270" stroke="black" opacity="0.8" width="11.283791670955125" height="11.283791670955125" x="721.6285601295442" y="54.16579647221476" id="dc416dd6-4459-46aa-944a-1dcdf1f5c9cd" z="100" cx="727.2704559650218" cy="59.80769230769232" class="recharts-symbols" transform="translate(727.2704559650218, 59.80769230769232)" d="M5.642,0A5.642,5.642,0,1,1,-5.642,0A5.642,5.642,0,1,1,5.642,0"></path></g><g class="recharts-layer recharts-scatter-symbol" role="img"><path name="Gray Literature" fill="#556270" stroke="black" opacity="0.8" width="11.283791670955125" height="11.283791670955125" x="711.3849623781389" y="40.89656570298401" id="4cdf3ea4-391d-401d-ad0c-356b33ed1dec" z="100" cx="717.0268582136165" cy="46.538461538461576" class="recharts-symbols" transform="translate(717.0268582136165, 46.538461538461576)" d="M5.642,0A5.642,5.642,0,1,1,-5.642,0A5.642,5.642,0,1,1,5.642,0"></path></g><g class="recharts-layer recharts-scatter-symbol" role="img"><path name="Gray Literature" fill="#556270" stroke="black" opacity="0.8" width="11.283791670955125" height="11.283791670955125" x="735.7135070377268" y="47.53118108759937" id="a1a28ac2-6bad-49f4-985c-31e80e28ce64" z="100" cx="741.3554028732044" cy="53.173076923076934" class="recharts-symbols" transform="translate(741.3554028732044, 53.173076923076934)" d="M5.642,0A5.642,5.642,0,1,1,-5.642,0A5.642,5.642,0,1,1,5.642,0"></path></g><g class="recharts-layer recharts-scatter-symbol" role="img"><path name="Gray Literature" fill="#556270" stroke="black" opacity="0.8" width="11.283791670955125" height="11.283791670955125" x="711.3849623781389" y="43.108104164522466" id="f4ff3bcb-96ff-4f0e-8eab-7f63f20c0a8f" z="100" cx="717.0268582136165" cy="48.75000000000003" class="recharts-symbols" transform="translate(717.0268582136165, 48.75000000000003)" d="M5.642,0A5.642,5.642,0,1,1,-5.642,0A5.642,5.642,0,1,1,5.642,0"></path></g><g class="recharts-layer recharts-scatter-symbol" role="img"><path name="Gray Literature" fill="#556270" stroke="black" opacity="0.8" width="11.283791670955125" height="11.283791670955125" x="1168.5055120346037" y="133.3388733952917" id="1dce048a-0052-4337-b58a-311ddd14b414" z="100" cx="1174.1474078700812" cy="138.98076923076925" class="recharts-symbols" transform="translate(1174.1474078700812, 138.98076923076925)" d="M5.642,0A5.642,5.642,0,1,1,-5.642,0A5.642,5.642,0,1,1,5.642,0"></path></g><g class="recharts-layer recharts-scatter-symbol" role="img"><path name="Gray Literature" fill="#556270" stroke="black" opacity="0.8" width="11.283791670955125" height="11.283791670955125" x="1052.6248124718304" y="179.78118108759938" id="da44d2f4-3047-4159-b1cc-2395e4ec47a3" z="100" cx="1058.266708307308" cy="185.42307692307693" class="recharts-symbols" transform="translate(1058.266708307308, 185.42307692307693)" d="M5.642,0A5.642,5.642,0,1,1,-5.642,0A5.642,5.642,0,1,1,5.642,0"></path></g><g class="recharts-layer recharts-scatter-symbol" role="img"><path name="Gray Literature" fill="#556270" stroke="black" opacity="0.8" width="11.283791670955125" height="11.283791670955125" x="1045.5823390177393" y="53.723488779907036" id="48e8f5d6-0604-4d11-8a6f-d9bc44000e27" z="100" cx="1051.2242348532168" cy="59.3653846153846" class="recharts-symbols" transform="translate(1051.2242348532168, 59.3653846153846)" d="M5.642,0A5.642,5.642,0,1,1,-5.642,0A5.642,5.642,0,1,1,5.642,0"></path></g><g class="recharts-layer recharts-scatter-symbol" role="img"><path name="Gray Literature" fill="#556270" stroke="black" opacity="0.8" width="11.283791670955125" height="11.283791670955125" x="975.7978293362901" y="140.85810416452244" id="05f6564c-ca90-4fc3-9685-b99bcfa51d6a" z="100" cx="981.4397251717677" cy="146.5" class="recharts-symbols" transform="translate(981.4397251717677, 146.5)" d="M5.642,0A5.642,5.642,0,1,1,-5.642,0A5.642,5.642,0,1,1,5.642,0"></path></g><g class="recharts-layer recharts-scatter-symbol" role="img"><path name="Gray Literature" fill="#556270" stroke="black" opacity="0.8" width="11.283791670955125" height="11.283791670955125" x="986.6816519471583" y="138.646565702984" id="18f09d06-bba3-4cf9-9464-cc4b5a897180" z="100" cx="992.323547782636" cy="144.28846153846155" class="recharts-symbols" transform="translate(992.323547782636, 144.28846153846155)" d="M5.642,0A5.642,5.642,0,1,1,-5.642,0A5.642,5.642,0,1,1,5.642,0"></path></g><g class="recharts-layer recharts-scatter-symbol" role="img"><path name="Gray Literature" fill="#556270" stroke="black" opacity="0.8" width="11.283791670955125" height="11.283791670955125" x="968.1151310227361" y="126.2619503183686" id="15329141-6280-4474-b34c-432f269fef1b" z="100" cx="973.7570268582137" cy="131.90384615384616" class="recharts-symbols" transform="translate(973.7570268582137, 131.90384615384616)" d="M5.642,0A5.642,5.642,0,1,1,-5.642,0A5.642,5.642,0,1,1,5.642,0"></path></g><g class="recharts-layer recharts-scatter-symbol" role="img"><path name="Gray Literature" fill="#556270" stroke="black" opacity="0.8" width="11.283791670955125" height="11.283791670955125" x="968.1151310227361" y="139.53118108759938" id="2af391df-91cd-4a3a-b93c-85a3c7534798" z="100" cx="973.7570268582137" cy="145.17307692307693" class="recharts-symbols" transform="translate(973.7570268582137, 145.17307692307693)" d="M5.642,0A5.642,5.642,0,1,1,-5.642,0A5.642,5.642,0,1,1,5.642,0"></path></g><g class="recharts-layer recharts-scatter-symbol" role="img"><path name="Gray Literature" fill="#556270" stroke="black" opacity="0.8" width="11.283791670955125" height="11.283791670955125" x="1106.4037006667088" y="87.33887339529167" id="5dd55647-d296-45de-b0a6-a218e0ddf2ea" z="100" cx="1112.0455965021863" cy="92.98076923076924" class="recharts-symbols" transform="translate(1112.0455965021863, 92.98076923076924)" d="M5.642,0A5.642,5.642,0,1,1,-5.642,0A5.642,5.642,0,1,1,5.642,0"></path></g><g class="recharts-layer recharts-scatter-symbol" role="img"><path name="Gray Literature" fill="#556270" stroke="black" opacity="0.8" width="11.283791670955125" height="11.283791670955125" x="1098.7210023531547" y="85.12733493375322" id="0f96fdb0-d704-4676-b7ca-c21123a4cd6b" z="100" cx="1104.3628981886322" cy="90.76923076923077" class="recharts-symbols" transform="translate(1104.3628981886322, 90.76923076923077)" d="M5.642,0A5.642,5.642,0,1,1,-5.642,0A5.642,5.642,0,1,1,5.642,0"></path></g><g class="recharts-layer recharts-scatter-symbol" role="img"><path name="Gray Literature" fill="#556270" stroke="black" opacity="0.8" width="11.283791670955125" height="11.283791670955125" x="1103.8428012288573" y="83.80041185683015" id="0ddae175-cf0b-410e-be19-85cf03238425" z="100" cx="1109.4846970643348" cy="89.44230769230771" class="recharts-symbols" transform="translate(1109.4846970643348, 89.44230769230771)" d="M5.642,0A5.642,5.642,0,1,1,-5.642,0A5.642,5.642,0,1,1,5.642,0"></path></g><g class="recharts-layer recharts-scatter-symbol" role="img"><path name="Gray Literature" fill="#556270" stroke="black" opacity="0.8" width="11.283791670955125" height="11.283791670955125" x="854.7953308978142" y="136.87733493375325" id="dae86078-809f-4feb-8a12-506d4f646375" z="100" cx="860.4372267332918" cy="142.5192307692308" class="recharts-symbols" transform="translate(860.4372267332918, 142.5192307692308)" d="M5.642,0A5.642,5.642,0,1,1,-5.642,0A5.642,5.642,0,1,1,5.642,0"></path></g><g class="recharts-layer recharts-scatter-symbol" role="img"><path name="Gray Literature" fill="#556270" stroke="black" opacity="0.8" width="11.283791670955125" height="11.283791670955125" x="860.5573546329797" y="177.5696426260609" id="fdad7839-37a7-4610-867b-8a1afe6a0a0a" z="100" cx="866.1992504684573" cy="183.21153846153845" class="recharts-symbols" transform="translate(866.1992504684573, 183.21153846153845)" d="M5.642,0A5.642,5.642,0,1,1,-5.642,0A5.642,5.642,0,1,1,5.642,0"></path></g><g class="recharts-layer recharts-scatter-symbol" role="img"><path name="Gray Literature" fill="#556270" stroke="black" opacity="0.8" width="11.283791670955125" height="11.283791670955125" x="905.3730947953782" y="178.45425801067628" id="1d86e5d9-1576-4376-9e9d-9fb55249a196" z="100" cx="911.0149906308558" cy="184.09615384615384" class="recharts-symbols" transform="translate(911.0149906308558, 184.09615384615384)" d="M5.642,0A5.642,5.642,0,1,1,-5.642,0A5.642,5.642,0,1,1,5.642,0"></path></g><g class="recharts-layer recharts-scatter-symbol" role="img"><path name="Gray Literature" fill="#556270" stroke="black" opacity="0.8" width="11.283791670955125" height="11.283791670955125" x="922.6591660008747" y="176.6850272414455" id="62011c63-0fe6-4459-8f77-169b8c8d93fa" z="100" cx="928.3010618363523" cy="182.32692307692307" class="recharts-symbols" transform="translate(928.3010618363523, 182.32692307692307)" d="M5.642,0A5.642,5.642,0,1,1,-5.642,0A5.642,5.642,0,1,1,5.642,0"></path></g><g class="recharts-layer recharts-scatter-symbol" role="img"><path name="Gray Literature" fill="#556270" stroke="black" opacity="0.8" width="11.283791670955125" height="11.283791670955125" x="912.4155682494694" y="135.10810416452247" id="0da78d90-f915-4aca-983a-3e357ad7180d" z="100" cx="918.057464084947" cy="140.75000000000003" class="recharts-symbols" transform="translate(918.057464084947, 140.75000000000003)" d="M5.642,0A5.642,5.642,0,1,1,-5.642,0A5.642,5.642,0,1,1,5.642,0"></path></g><g class="recharts-layer recharts-scatter-symbol" role="img"><path name="Gray Literature" fill="#556270" stroke="black" opacity="0.8" width="11.283791670955125" height="11.283791670955125" x="1041.1007650014997" y="131.12733493375322" id="b4aa984b-f9f5-4c40-aa21-4f14ab0b9339" z="100" cx="1046.7426608369772" cy="136.76923076923077" class="recharts-symbols" transform="translate(1046.7426608369772, 136.76923076923077)" d="M5.642,0A5.642,5.642,0,1,1,-5.642,0A5.642,5.642,0,1,1,5.642,0"></path></g><g class="recharts-layer recharts-scatter-symbol" role="img"><path name="Gray Literature" fill="#556270" stroke="black" opacity="0.8" width="11.283791670955125" height="11.283791670955125" x="1098.7210023531547" y="139.53118108759938" id="7d2a8ef1-f28f-4110-932e-14890f929e9b" z="100" cx="1104.3628981886322" cy="145.17307692307693" class="recharts-symbols" transform="translate(1104.3628981886322, 145.17307692307693)" d="M5.642,0A5.642,5.642,0,1,1,-5.642,0A5.642,5.642,0,1,1,5.642,0"></path></g><g class="recharts-layer recharts-scatter-symbol" role="img"><path name="Gray Literature" fill="#556270" stroke="black" opacity="0.8" width="11.283791670955125" height="11.283791670955125" x="1034.0582915474083" y="89.55041185683015" id="e8b49e7d-65ff-451b-afba-2f4e5a614094" z="100" cx="1039.7001873828858" cy="95.19230769230771" class="recharts-symbols" transform="translate(1039.7001873828858, 95.19230769230771)" d="M5.642,0A5.642,5.642,0,1,1,-5.642,0A5.642,5.642,0,1,1,5.642,0"></path></g><g class="recharts-layer recharts-scatter-symbol" role="img"><path name="Gray Literature" fill="#556270" stroke="black" opacity="0.8" width="11.283791670955125" height="11.283791670955125" x="1098.7210023531547" y="82.03118108759938" id="ef660191-1bb4-45a5-b522-50dffff70fe9" z="100" cx="1104.3628981886322" cy="87.67307692307693" class="recharts-symbols" transform="translate(1104.3628981886322, 87.67307692307693)" d="M5.642,0A5.642,5.642,0,1,1,-5.642,0A5.642,5.642,0,1,1,5.642,0"></path></g><g class="recharts-layer recharts-scatter-symbol" role="img"><path name="Gray Literature" fill="#556270" stroke="black" opacity="0.8" width="11.283791670955125" height="11.283791670955125" x="1110.8852746829486" y="46.20425801067628" id="1c237cca-9e05-4aee-bcc6-afdbbb5368dd" z="100" cx="1116.5271705184261" cy="51.84615384615384" class="recharts-symbols" transform="translate(1116.5271705184261, 51.84615384615384)" d="M5.642,0A5.642,5.642,0,1,1,-5.642,0A5.642,5.642,0,1,1,5.642,0"></path></g><g class="recharts-layer recharts-scatter-symbol" role="img"><path name="Gray Literature" fill="#556270" stroke="black" opacity="0.8" width="11.283791670955125" height="11.283791670955125" x="1112.1657244018743" y="52.396565702984" id="b45c1e01-cef9-4e7e-846d-c180bcdc4b93" z="100" cx="1117.8076202373518" cy="58.03846153846156" class="recharts-symbols" transform="translate(1117.8076202373518, 58.03846153846156)" d="M5.642,0A5.642,5.642,0,1,1,-5.642,0A5.642,5.642,0,1,1,5.642,0"></path></g><g class="recharts-layer recharts-scatter-symbol" role="img"><path name="Gray Literature" fill="#556270" stroke="black" opacity="0.8" width="11.283791670955125" height="11.283791670955125" x="1112.8059492613372" y="131.56964262606093" id="6515b7e3-db55-4aeb-99c1-bb8e495c46f6" z="100" cx="1118.4478450968147" cy="137.21153846153848" class="recharts-symbols" transform="translate(1118.4478450968147, 137.21153846153848)" d="M5.642,0A5.642,5.642,0,1,1,-5.642,0A5.642,5.642,0,1,1,5.642,0"></path></g><g class="recharts-layer recharts-scatter-symbol" role="img"><path name="Gray Literature" fill="#556270" stroke="black" opacity="0.8" width="11.283791670955125" height="11.283791670955125" x="1096.8003277747664" y="134.66579647221477" id="e5979af1-e8b0-49a2-adac-ff1899e0c6fe" z="100" cx="1102.442223610244" cy="140.30769230769232" class="recharts-symbols" transform="translate(1102.442223610244, 140.30769230769232)" d="M5.642,0A5.642,5.642,0,1,1,-5.642,0A5.642,5.642,0,1,1,5.642,0"></path></g><g class="recharts-layer recharts-scatter-symbol" role="img"><path name="Gray Literature" fill="#556270" stroke="black" opacity="0.8" width="11.283791670955125" height="11.283791670955125" x="1032.7778418284827" y="182.43502724144554" id="28100120-74e0-4249-8674-44f336aad90f" z="100" cx="1038.4197376639602" cy="188.0769230769231" class="recharts-symbols" transform="translate(1038.4197376639602, 188.0769230769231)" d="M5.642,0A5.642,5.642,0,1,1,-5.642,0A5.642,5.642,0,1,1,5.642,0"></path></g><g class="recharts-layer recharts-scatter-symbol" role="img"><path name="Gray Literature" fill="#556270" stroke="black" opacity="0.8" width="11.283791670955125" height="11.283791670955125" x="1106.4037006667088" y="170.93502724144554" id="7cc4444b-bee0-46ea-867d-1c1e3b970463" z="100" cx="1112.0455965021863" cy="176.5769230769231" class="recharts-symbols" transform="translate(1112.0455965021863, 176.5769230769231)" d="M5.642,0A5.642,5.642,0,1,1,-5.642,0A5.642,5.642,0,1,1,5.642,0"></path></g><g class="recharts-layer recharts-scatter-symbol" role="img"><path name="Gray Literature" fill="#556270" stroke="black" opacity="0.8" width="11.283791670955125" height="11.283791670955125" x="1101.9221266504687" y="97.0696426260609" id="d5ead5e7-fb07-4c10-9a38-97837f3c5c30" z="100" cx="1107.5640224859462" cy="102.71153846153847" class="recharts-symbols" transform="translate(1107.5640224859462, 102.71153846153847)" d="M5.642,0A5.642,5.642,0,1,1,-5.642,0A5.642,5.642,0,1,1,5.642,0"></path></g><g class="recharts-layer recharts-scatter-symbol" role="img"><path name="Gray Literature" fill="#556270" stroke="black" opacity="0.8" width="11.283791670955125" height="11.283791670955125" x="1107.6841503856344" y="85.12733493375322" id="8e8d0dae-72eb-41a9-b8b9-087e40447886" z="100" cx="1113.326046221112" cy="90.76923076923077" class="recharts-symbols" transform="translate(1113.326046221112, 90.76923076923077)" d="M5.642,0A5.642,5.642,0,1,1,-5.642,0A5.642,5.642,0,1,1,5.642,0"></path></g><g class="recharts-layer recharts-scatter-symbol" role="img"><path name="Gray Literature" fill="#556270" stroke="black" opacity="0.8" width="11.283791670955125" height="11.283791670955125" x="988.6023265255468" y="139.0888733952917" id="0db838c9-d586-47a9-a53b-0f7cf50c0cd9" z="100" cx="994.2442223610244" cy="144.73076923076925" class="recharts-symbols" transform="translate(994.2442223610244, 144.73076923076925)" d="M5.642,0A5.642,5.642,0,1,1,-5.642,0A5.642,5.642,0,1,1,5.642,0"></path></g><g class="recharts-layer recharts-scatter-symbol" role="img"><path name="Gray Literature" fill="#556270" stroke="black" opacity="0.8" width="11.283791670955125" height="11.283791670955125" x="844.5517331464089" y="178.89656570298396" id="d30ef5f5-536d-4ed7-8853-659c3d0ae6e8" z="100" cx="850.1936289818865" cy="184.53846153846152" class="recharts-symbols" transform="translate(850.1936289818865, 184.53846153846152)" d="M5.642,0A5.642,5.642,0,1,1,-5.642,0A5.642,5.642,0,1,1,5.642,0"></path></g><g class="recharts-layer recharts-scatter-symbol" role="img"><path name="Gray Literature" fill="#556270" stroke="black" opacity="0.8" width="11.283791670955125" height="11.283791670955125" x="842.6310585680202" y="174.91579647221477" id="c38462e0-7248-4979-8a55-109c7e34ccb9" z="100" cx="848.2729544034978" cy="180.55769230769232" class="recharts-symbols" transform="translate(848.2729544034978, 180.55769230769232)" d="M5.642,0A5.642,5.642,0,1,1,-5.642,0A5.642,5.642,0,1,1,5.642,0"></path></g><g class="recharts-layer recharts-scatter-symbol" role="img"><path name="Gray Literature" fill="#556270" stroke="black" opacity="0.8" width="11.283791670955125" height="11.283791670955125" x="851.5942066005" y="183.7619503183686" id="0a358d81-fe12-4175-bc2d-f5525ac6e2be" z="100" cx="857.2361024359776" cy="189.40384615384616" class="recharts-symbols" transform="translate(857.2361024359776, 189.40384615384616)" d="M5.642,0A5.642,5.642,0,1,1,-5.642,0A5.642,5.642,0,1,1,5.642,0"></path></g></g></g></g></svg>